<svg width="115" height="115" viewBox="0 0 115 115" fill="none" xmlns="http://www.w3.org/2000/svg">
<path opacity="0.1" d="M100.836 80.0733C100.836 80.0733 98.3321 83.3935 95.8274 87.9488C93.5695 92.0568 91.8523 97.592 91.4731 102.213C90.4096 102.163 89.2415 102.116 87.9785 102.071C80.4988 101.806 69.7006 101.639 57.6938 101.639C44.0438 101.639 31.956 101.855 24.5303 102.185C24.2747 102.197 24.0245 102.208 23.78 102.22C14.5093 90.7292 -4.159 70.7102 13.0209 62.4748C13.0209 62.4748 14.2795 62.0915 16.1664 61.2681C22.1384 58.6616 34.4106 51.6478 33.0456 38.4234C33.0456 38.4234 32.5805 35.9557 32.5805 32.522C32.5805 24.493 35.1224 11.1842 52.092 11.7916C62.3684 12.1599 71.8326 17.3893 77.5544 25.7595C83.1667 33.9691 92.1406 44.07 99.4486 38.3033C101.136 36.9717 103.366 36.4784 105.449 37.0638C110.709 38.5413 116.685 46.1902 100.836 80.0733Z" fill="#AC6AF2"/>
<path d="M112.767 103.835C112.767 104.452 88.2729 104.952 58.0581 104.952C41.0098 104.952 25.7829 104.793 15.7494 104.543C13.4383 104.486 11.4031 104.423 9.68464 104.357C8.55268 104.314 7.55815 104.268 6.71269 104.221C4.53743 104.101 3.34937 103.971 3.34937 103.835C3.34937 103.662 5.27766 103.498 8.71931 103.352C10.1288 103.292 11.7919 103.235 13.6803 103.182C23.6169 102.902 39.7922 102.719 58.0581 102.719C74.1252 102.719 88.5746 102.86 98.5836 103.085C107.397 103.283 112.767 103.547 112.767 103.835Z" fill="#F3F3F3"/>
<path d="M79.2641 43.716C77.7736 43.4476 74.8694 42.8959 71.2737 42.2038C71.9979 39.5328 71.733 37.582 71.1194 36.1879C70.3556 34.4511 68.7675 33.2153 66.9041 32.8596L53.9893 30.3981C52.8841 30.1876 51.7373 30.2911 50.7006 30.7278C47.3416 32.1415 46.9526 36.0949 46.921 37.4619C42.2614 36.5488 39.027 35.913 39.027 35.913C39.027 35.913 32.916 34.3617 31.6938 40.9892L83.9649 51.4251C83.9649 51.4251 85.7977 44.891 79.2641 43.716ZM50.6844 38.1991C50.9252 37.0362 51.7358 34.5305 54.249 34.5225C54.4747 34.522 54.6993 34.5451 54.9209 34.5833L63.7712 36.117C64.7868 36.2925 65.7094 36.8317 66.3352 37.6508C66.9498 38.4554 67.4282 39.6635 67.1814 41.4134C61.8816 40.3867 55.821 39.2042 50.6844 38.1991Z" fill="#AC6AF2"/>
<path d="M77.9785 53.7031H57.9482H37.9178C36.3425 53.7031 35.1063 55.0543 35.2461 56.6235L38.9548 98.2458C39.166 100.617 41.1523 102.434 43.5325 102.434H57.9481H72.3637C74.7439 102.434 76.7302 100.617 76.9414 98.2458L80.65 56.6235C80.79 55.0543 79.5538 53.7031 77.9785 53.7031ZM47.3611 99.0211C47.3213 99.0234 47.2815 99.0246 47.2422 99.0246C46.1855 99.0246 45.2996 98.1999 45.2372 97.1314L43.026 59.2397C42.9614 58.1314 43.8074 57.1805 44.9157 57.1158C46.0237 57.0516 46.9749 57.8972 47.0395 59.0055L49.2507 96.8972C49.3154 98.0056 48.4694 98.9565 47.3611 99.0211ZM59.8076 97.0143C59.8076 98.1245 58.9076 99.0245 57.7974 99.0245C56.6872 99.0245 55.7872 98.1245 55.7872 97.0143V59.1225C55.7872 58.0124 56.6872 57.1124 57.7974 57.1124C58.9075 57.1124 59.8076 58.0124 59.8076 59.1225V97.0143ZM72.8703 59.2397L70.6591 97.1314C70.5968 98.1998 69.7107 99.0246 68.6541 99.0246C68.6147 99.0246 68.5751 99.0234 68.5352 99.0211C67.4269 98.9565 66.5809 98.0056 66.6456 96.8972L68.8568 59.0055C68.9215 57.8971 69.872 57.051 70.9806 57.1158C72.0889 57.1805 72.935 58.1314 72.8703 59.2397Z" fill="#AC6AF2"/>
<path d="M57.796 57.1133C56.6859 57.1133 55.7859 58.0133 55.7859 59.1234V97.0152C55.7859 98.1254 56.6859 99.0253 57.796 99.0253C58.9062 99.0253 59.8062 98.1254 59.8062 97.0152V59.1234C59.8062 58.0133 58.9063 57.1133 57.796 57.1133Z" fill="white"/>
<path d="M47.0394 59.0064C46.9748 57.898 46.0236 57.0525 44.9156 57.1167C43.8073 57.1814 42.9613 58.1323 43.0259 59.2406L45.2371 97.1323C45.2995 98.2008 46.1854 99.0255 47.2421 99.0255C47.2814 99.0255 47.3212 99.0243 47.361 99.022C48.4693 98.9573 49.3153 98.0064 49.2506 96.8981L47.0394 59.0064Z" fill="white"/>
<path d="M70.9799 57.1168C69.8712 57.052 68.9207 57.8981 68.856 59.0064L66.6448 96.8982C66.5802 98.0065 67.4262 98.9574 68.5345 99.022C68.5744 99.0244 68.614 99.0255 68.6534 99.0255C69.7099 99.0255 70.596 98.2008 70.6583 97.1324L72.8695 59.2406C72.9342 58.1323 72.0882 57.1814 70.9799 57.1168Z" fill="white"/>
</svg>
