<svg width="45" height="45" viewBox="0 0 45 45" fill="none" xmlns="http://www.w3.org/2000/svg">
<path d="M45 22.5C45 34.9264 34.9264 45 22.5 45C10.0736 45 0 34.9264 0 22.5C0 10.0736 10.0736 0 22.5 0C34.9264 0 45 10.0736 45 22.5Z" fill="#AC6AF2"/>
<path d="M28.4931 14.1312C28.456 15.6155 27.2426 16.8125 25.75 16.8125H20.25C18.7574 16.8125 17.544 15.6149 17.5069 14.1312C15.9346 14.4475 14.75 15.8349 14.75 17.5V29.875C14.75 31.7732 16.2893 33.3125 18.1875 33.3125H27.8125C29.7107 33.3125 31.25 31.7732 31.25 29.875V17.5C31.25 15.8349 30.0654 14.4468 28.4931 14.1312ZM21.4236 28.6423L19.59 30.4759C19.4559 30.6099 19.2799 30.6773 19.1039 30.6773C18.9279 30.6773 18.7519 30.6099 18.6179 30.4759L17.7014 29.5594C17.4326 29.2913 17.4326 28.8561 17.7014 28.5873C17.9696 28.3185 18.4047 28.3185 18.6736 28.5873L19.1039 29.0177L20.4507 27.6709C20.7196 27.402 21.1541 27.402 21.4229 27.6709C21.6917 27.9397 21.6917 28.3742 21.4229 28.643L21.4236 28.6423ZM21.4236 24.5173L19.59 26.3509C19.4559 26.4849 19.2799 26.5523 19.1039 26.5523C18.9279 26.5523 18.7519 26.4849 18.6179 26.3509L17.7014 25.4344C17.4326 25.1663 17.4326 24.7311 17.7014 24.4623C17.9696 24.1935 18.4047 24.1935 18.6736 24.4623L19.1039 24.8927L20.4507 23.5459C20.7196 23.277 21.1541 23.277 21.4229 23.5459C21.6917 23.8147 21.6917 24.2492 21.4229 24.518L21.4236 24.5173ZM21.4236 20.3923L19.59 22.2259C19.4559 22.3599 19.2799 22.4273 19.1039 22.4273C18.9279 22.4273 18.7519 22.3599 18.6179 22.2259L17.7014 21.3094C17.4326 21.0413 17.4326 20.6061 17.7014 20.3373C17.9696 20.0685 18.4047 20.0685 18.6736 20.3373L19.1039 20.7677L20.4507 19.4209C20.7196 19.152 21.1541 19.152 21.4229 19.4209C21.6917 19.6897 21.6917 20.1242 21.4229 20.393L21.4236 20.3923ZM27.8125 29.875H23.6875C23.308 29.875 23 29.567 23 29.1875C23 28.808 23.308 28.5 23.6875 28.5H27.8125C28.192 28.5 28.5 28.808 28.5 29.1875C28.5 29.567 28.192 29.875 27.8125 29.875ZM27.8125 25.75H23.6875C23.308 25.75 23 25.442 23 25.0625C23 24.683 23.308 24.375 23.6875 24.375H27.8125C28.192 24.375 28.5 24.683 28.5 25.0625C28.5 25.442 28.192 25.75 27.8125 25.75ZM27.8125 21.625H23.6875C23.308 21.625 23 21.317 23 20.9375C23 20.558 23.308 20.25 23.6875 20.25H27.8125C28.192 20.25 28.5 20.558 28.5 20.9375C28.5 21.317 28.192 21.625 27.8125 21.625Z" fill="white"/>
<path d="M25.75 12.6875H20.25C19.4906 12.6875 18.875 13.3031 18.875 14.0625C18.875 14.8219 19.4906 15.4375 20.25 15.4375H25.75C26.5094 15.4375 27.125 14.8219 27.125 14.0625C27.125 13.3031 26.5094 12.6875 25.75 12.6875Z" fill="white"/>
</svg>
