<svg width="16" height="16" viewBox="0 0 16 16" fill="none" xmlns="http://www.w3.org/2000/svg">
<path d="M4.17093 12.9907C4.11674 13.0456 4.07375 13.1108 4.04442 13.1825C4.0151 13.2543 4 13.3312 4 13.4088C4 13.4864 4.0151 13.5633 4.04442 13.635C4.07375 13.7068 4.11674 13.7719 4.17093 13.8268C4.22512 13.8817 4.28946 13.9253 4.36026 13.955C4.43107 13.9847 4.50695 14 4.58359 14C4.66023 14 4.73612 13.9847 4.80692 13.955C4.87773 13.9253 4.94206 13.8817 4.99625 13.8268L10.8289 7.91805C10.8832 7.86317 10.9262 7.798 10.9555 7.72627C10.9849 7.65454 11 7.57765 11 7.5C11 7.42235 10.9849 7.34546 10.9555 7.27373C10.9262 7.202 10.8832 7.13683 10.8289 7.08195L4.99625 1.17316C4.88681 1.06229 4.73837 1 4.58359 1C4.42881 1 4.28038 1.06229 4.17093 1.17316C4.06149 1.28403 4 1.43441 4 1.59121C4 1.74801 4.06149 1.89838 4.17093 2.00925L9.59168 7.5L4.17093 12.9907Z" fill="#828282"/>
</svg>
