<svg width="100" height="100" viewBox="0 0 100 100" fill="none" xmlns="http://www.w3.org/2000/svg">
<path d="M16 0.5H84C92.5604 0.500001 99.5 7.43959 99.5 16V84C99.5 92.5604 92.5604 99.5 84 99.5H16C7.43959 99.5 0.5 92.5604 0.5 84V16C0.500001 7.43959 7.43959 0.5 16 0.5Z" fill="#AC6AF2" stroke="url(#paint0_linear_213_88)"/>
<path d="M50 30.5C46.1433 30.5 42.3731 31.6437 39.1664 33.7863C35.9596 35.929 33.4603 38.9745 31.9844 42.5377C30.5084 46.1008 30.1223 50.0216 30.8747 53.8043C31.6271 57.5869 33.4843 61.0615 36.2114 63.7886C38.9386 66.5157 42.4131 68.3729 46.1957 69.1253C49.9784 69.8777 53.8992 69.4916 57.4623 68.0156C61.0255 66.5397 64.071 64.0404 66.2137 60.8336C68.3564 57.6269 69.5 53.8567 69.5 50C69.4945 44.83 67.4383 39.8732 63.7826 36.2174C60.1268 32.5617 55.1701 30.5055 50 30.5ZM58.5613 46.5613L48.0613 57.0613C47.9219 57.2007 47.7565 57.3114 47.5744 57.3868C47.3923 57.4623 47.1971 57.5012 47 57.5012C46.8029 57.5012 46.6077 57.4623 46.4256 57.3868C46.2435 57.3114 46.0781 57.2007 45.9388 57.0613L41.4388 52.5613C41.1573 52.2798 40.9992 51.898 40.9992 51.5C40.9992 51.102 41.1573 50.7202 41.4388 50.4387C41.7202 50.1573 42.102 49.9992 42.5 49.9992C42.8981 49.9992 43.2798 50.1573 43.5613 50.4387L47 53.8794L56.4388 44.4387C56.5781 44.2994 56.7436 44.1888 56.9257 44.1134C57.1078 44.038 57.3029 43.9992 57.5 43.9992C57.6971 43.9992 57.8923 44.038 58.0744 44.1134C58.2564 44.1888 58.4219 44.2994 58.5613 44.4387C58.7006 44.5781 58.8112 44.7436 58.8866 44.9257C58.962 45.1077 59.0008 45.3029 59.0008 45.5C59.0008 45.6971 58.962 45.8923 58.8866 46.0743C58.8112 46.2564 58.7006 46.4219 58.5613 46.5613Z" fill="white"/>
<defs>
<linearGradient id="paint0_linear_213_88" x1="50" y1="0" x2="50" y2="100" gradientUnits="userSpaceOnUse">
<stop stop-color="#CEA6FF"/>
<stop offset="0.288298" stop-color="#AB65FF"/>
<stop offset="1" stop-color="#9C5FE5"/>
</linearGradient>
</defs>
</svg>
