<svg width="16" height="16" viewBox="0 0 16 16" fill="none" xmlns="http://www.w3.org/2000/svg">
<path d="M11.3333 1.33301H4.66658C2.82659 1.33301 1.33325 2.81967 1.33325 4.65301V8.63967V9.30634C1.33325 11.1397 2.82659 12.6263 4.66658 12.6263H5.66658C5.84658 12.6263 6.08659 12.7463 6.19992 12.893L7.19992 14.2197C7.63992 14.8063 8.35992 14.8063 8.79992 14.2197L9.79992 12.893C9.92658 12.7263 10.1266 12.6263 10.3333 12.6263H11.3333C13.1733 12.6263 14.6666 11.1397 14.6666 9.30634V4.65301C14.6666 2.81967 13.1733 1.33301 11.3333 1.33301ZM5.33325 7.99967C4.95992 7.99967 4.66658 7.69967 4.66658 7.33301C4.66658 6.96634 4.96659 6.66634 5.33325 6.66634C5.69992 6.66634 5.99992 6.96634 5.99992 7.33301C5.99992 7.69967 5.70658 7.99967 5.33325 7.99967ZM7.99992 7.99967C7.62659 7.99967 7.33325 7.69967 7.33325 7.33301C7.33325 6.96634 7.63325 6.66634 7.99992 6.66634C8.36658 6.66634 8.66658 6.96634 8.66658 7.33301C8.66658 7.69967 8.37325 7.99967 7.99992 7.99967ZM10.6666 7.99967C10.2933 7.99967 9.99992 7.69967 9.99992 7.33301C9.99992 6.96634 10.2999 6.66634 10.6666 6.66634C11.0333 6.66634 11.3333 6.96634 11.3333 7.33301C11.3333 7.69967 11.0399 7.99967 10.6666 7.99967Z" fill="#DEDEDE"/>
</svg>
