<svg width="45" height="45" viewBox="0 0 45 45" fill="none" xmlns="http://www.w3.org/2000/svg">
<path d="M45 22.5C45 34.9264 34.9264 45 22.5 45C10.0736 45 0 34.9264 0 22.5C0 10.0736 10.0736 0 22.5 0C34.9264 0 45 10.0736 45 22.5Z" fill="#AC6AF2"/>
<path d="M24.9937 26.4375C24.7875 26.1625 24.5813 25.8875 24.4438 25.5438L24.375 25.6125L22.6562 27.3312C22.5188 27.4687 22.3813 27.5375 22.175 27.5375C21.9688 27.5375 21.8313 27.4687 21.6938 27.3312L20.6625 26.4375C20.3875 26.1625 20.3875 25.75 20.6625 25.475C20.9375 25.2 21.35 25.2 21.625 25.475L22.1062 25.9562L23.3438 24.7188C23.55 24.5125 23.825 24.4437 24.1 24.5812C24.0312 24.375 24.0312 24.1 24.0312 23.8937C24.0312 22.0375 25.2 20.4563 26.85 19.9062H13.375V27.4C13.375 28.7063 14.4063 29.8062 15.7125 29.8062H22.7937C23.0687 28.4312 23.8938 27.2625 24.9937 26.4375ZM22.5188 20.4563C23.4812 20.4563 24.3062 21.2812 24.3062 22.2437C24.3062 23.2062 23.55 24.0312 22.5188 24.0312C21.5563 24.0312 20.7312 23.2062 20.7312 22.2437C20.7312 21.2812 21.5563 20.4563 22.5188 20.4563ZM17.7063 27.8813C16.7438 27.8813 15.9187 27.0563 15.9187 26.0938C15.9187 25.1312 16.7438 24.3062 17.7063 24.3062C18.6688 24.3062 19.4937 25.1312 19.4937 26.0938C19.4937 27.0563 18.6688 27.8813 17.7063 27.8813ZM19.5625 21.9L17.8438 23.6187C17.7063 23.7562 17.5687 23.825 17.3625 23.825C17.1563 23.825 17.0187 23.7562 16.8812 23.6187L15.9187 22.6562C15.6437 22.3812 15.6437 21.9688 15.9187 21.6938C16.1937 21.4188 16.6063 21.4188 16.8812 21.6938L17.3625 22.175L18.6 20.9375C18.875 20.6625 19.2875 20.6625 19.5625 20.9375C19.7688 21.1437 19.7688 21.625 19.5625 21.9Z" fill="white"/>
<path d="M17.7063 25.6813C17.5 25.6813 17.2938 25.8875 17.2938 26.0938C17.2938 26.3 17.5 26.5063 17.7063 26.5063C17.9125 26.5063 18.1188 26.3 18.1188 26.0938C18.1188 25.8875 17.9125 25.6813 17.7063 25.6813Z" fill="white"/>
<path d="M22.5188 22.6562C22.725 22.6562 22.9313 22.45 22.9313 22.2437C22.9313 22.0375 22.725 21.8312 22.5188 21.8312C22.3125 21.8312 22.1063 22.0375 22.1063 22.2437C22.175 22.45 22.3125 22.6562 22.5188 22.6562Z" fill="white"/>
<path d="M29.05 15.9188C29.05 15.5063 28.7062 15.2313 28.3625 15.2313H25.475V17.0188C25.475 17.4313 25.1313 17.7063 24.7875 17.7063C24.375 17.7063 24.1 17.4313 24.1 17.0188V15.2313H18.325V17.0188C18.325 17.4313 18.05 17.7063 17.6375 17.7063C17.225 17.7063 16.95 17.4313 16.95 17.0188V15.2313H14.0625C13.7188 15.2313 13.375 15.5063 13.375 15.9188V18.5313H29.05V15.9188Z" fill="white"/>
<path d="M18.325 14.8187C18.325 14.475 18.05 14.1312 17.6375 14.1312C17.225 14.1312 16.95 14.475 16.95 14.8187V15.2312H18.325V14.8187Z" fill="white"/>
<path d="M25.475 14.8187C25.475 14.475 25.1312 14.1312 24.7875 14.1312C24.375 14.1312 24.1 14.475 24.1 14.8187V15.2312H25.475V14.8187Z" fill="white"/>
<path d="M28.3625 26.7812C25.9562 26.7812 24.1 28.7063 24.1 31.0438V31.1812C24.1 31.525 24.4437 31.8687 24.7875 31.8687H31.9375C32.2812 31.8687 32.625 31.525 32.625 31.1812V31.0438C32.625 28.7063 30.7 26.7812 28.3625 26.7812Z" fill="white"/>
<path d="M25.475 23.8937C25.475 25.475 26.7812 26.7125 28.2937 26.7125C29.875 26.7125 31.1125 25.4062 31.1125 23.8937C31.1125 22.3125 29.8062 21.075 28.2937 21.075C26.7812 21.0062 25.475 22.3125 25.475 23.8937Z" fill="white"/>
</svg>
