<svg width="20" height="20" viewBox="0 0 20 20" fill="none" xmlns="http://www.w3.org/2000/svg">
<path d="M13.3334 1.66602H6.66675C3.33341 1.66602 1.66675 3.33268 1.66675 6.66602V17.4993C1.66675 17.9577 2.04175 18.3327 2.50008 18.3327H13.3334C16.6667 18.3327 18.3334 16.666 18.3334 13.3327V6.66602C18.3334 3.33268 16.6667 1.66602 13.3334 1.66602ZM11.6667 12.7077H5.83341C5.49175 12.7077 5.20841 12.4243 5.20841 12.0827C5.20841 11.741 5.49175 11.4577 5.83341 11.4577H11.6667C12.0084 11.4577 12.2917 11.741 12.2917 12.0827C12.2917 12.4243 12.0084 12.7077 11.6667 12.7077ZM14.1667 8.54102H5.83341C5.49175 8.54102 5.20841 8.25768 5.20841 7.91602C5.20841 7.57435 5.49175 7.29102 5.83341 7.29102H14.1667C14.5084 7.29102 14.7917 7.57435 14.7917 7.91602C14.7917 8.25768 14.5084 8.54102 14.1667 8.54102Z" fill="#AC6AF2"/>
</svg>
