<svg width="64" height="64" viewBox="0 0 64 64" fill="none" xmlns="http://www.w3.org/2000/svg">
<g clip-path="url(#clip0_254_9427)">
<path d="M0 8C0 3.58172 3.58172 0 8 0H56C60.4183 0 64 3.58172 64 8V56C64 60.4183 60.4183 64 56 64H8C3.58172 64 0 60.4183 0 56V8Z" fill="#AC6AF2" fill-opacity="0.1"/>
<g filter="url(#filter0_dddd_254_9427)">
<path d="M13 14H44.5L47.65 17L50.8 20V68H13V14Z" fill="#F4F3FF"/>
<line x1="18.5122" y1="25" x2="45.2872" y2="25" stroke="#AC6AF2" stroke-width="2"/>
<line x1="18.5122" y1="31" x2="45.2872" y2="31" stroke="#AC6AF2" stroke-width="2"/>
<line x1="18.5122" y1="37" x2="45.2872" y2="37" stroke="#AC6AF2" stroke-width="2"/>
<line x1="18.5122" y1="43" x2="45.2872" y2="43" stroke="#AC6AF2" stroke-width="2"/>
<line x1="18.5122" y1="49" x2="45.2872" y2="49" stroke="#AC6AF2" stroke-width="2"/>
<line x1="18.5122" y1="55" x2="45.2872" y2="55" stroke="#AC6AF2" stroke-width="2"/>
<path d="M44.4995 20V14L50.7995 20H44.4995Z" fill="#AC6AF2"/>
</g>
</g>
<defs>
<filter id="filter0_dddd_254_9427" x="-3" y="11" width="69.8" height="114" filterUnits="userSpaceOnUse" color-interpolation-filters="sRGB">
<feFlood flood-opacity="0" result="BackgroundImageFix"/>
<feColorMatrix in="SourceAlpha" type="matrix" values="0 0 0 0 0 0 0 0 0 0 0 0 0 0 0 0 0 0 127 0" result="hardAlpha"/>
<feOffset dy="3"/>
<feGaussianBlur stdDeviation="3"/>
<feColorMatrix type="matrix" values="0 0 0 0 0.592157 0 0 0 0 0.258824 0 0 0 0 1 0 0 0 0.1 0"/>
<feBlend mode="normal" in2="BackgroundImageFix" result="effect1_dropShadow_254_9427"/>
<feColorMatrix in="SourceAlpha" type="matrix" values="0 0 0 0 0 0 0 0 0 0 0 0 0 0 0 0 0 0 127 0" result="hardAlpha"/>
<feOffset dy="10"/>
<feGaussianBlur stdDeviation="5"/>
<feColorMatrix type="matrix" values="0 0 0 0 0.592157 0 0 0 0 0.258824 0 0 0 0 1 0 0 0 0.09 0"/>
<feBlend mode="normal" in2="effect1_dropShadow_254_9427" result="effect2_dropShadow_254_9427"/>
<feColorMatrix in="SourceAlpha" type="matrix" values="0 0 0 0 0 0 0 0 0 0 0 0 0 0 0 0 0 0 127 0" result="hardAlpha"/>
<feOffset dy="23"/>
<feGaussianBlur stdDeviation="7"/>
<feColorMatrix type="matrix" values="0 0 0 0 0.592157 0 0 0 0 0.258824 0 0 0 0 1 0 0 0 0.05 0"/>
<feBlend mode="normal" in2="effect2_dropShadow_254_9427" result="effect3_dropShadow_254_9427"/>
<feColorMatrix in="SourceAlpha" type="matrix" values="0 0 0 0 0 0 0 0 0 0 0 0 0 0 0 0 0 0 127 0" result="hardAlpha"/>
<feOffset dy="41"/>
<feGaussianBlur stdDeviation="8"/>
<feColorMatrix type="matrix" values="0 0 0 0 0.592157 0 0 0 0 0.258824 0 0 0 0 1 0 0 0 0.01 0"/>
<feBlend mode="normal" in2="effect3_dropShadow_254_9427" result="effect4_dropShadow_254_9427"/>
<feBlend mode="normal" in="SourceGraphic" in2="effect4_dropShadow_254_9427" result="shape"/>
</filter>
<clipPath id="clip0_254_9427">
<path d="M0 8C0 3.58172 3.58172 0 8 0H56C60.4183 0 64 3.58172 64 8V56C64 60.4183 60.4183 64 56 64H8C3.58172 64 0 60.4183 0 56V8Z" fill="white"/>
</clipPath>
</defs>
</svg>
