<svg width="45" height="45" viewBox="0 0 45 45" fill="none" xmlns="http://www.w3.org/2000/svg">
<path d="M45 22.5C45 34.9264 34.9264 45 22.5 45C10.0736 45 0 34.9264 0 22.5C0 10.0736 10.0736 0 22.5 0C34.9264 0 45 10.0736 45 22.5Z" fill="#AC6AF2"/>
<path d="M31.8456 30.9063C31.7852 31.0108 31.6984 31.0976 31.5939 31.1579C31.4893 31.2183 31.3707 31.25 31.25 31.25H14.75C14.6294 31.2499 14.5109 31.218 14.4065 31.1576C14.3021 31.0973 14.2154 31.0105 14.1552 30.906C14.0949 30.8015 14.0632 30.683 14.0632 30.5623C14.0633 30.4417 14.095 30.3232 14.1553 30.2188C15.4642 27.956 17.4811 26.3335 19.8349 25.5644C18.6706 24.8713 17.766 23.8151 17.2601 22.5581C16.7541 21.3011 16.6748 19.9128 17.0342 18.6063C17.3936 17.2999 18.172 16.1475 19.2497 15.3263C20.3275 14.505 21.645 14.0602 23 14.0602C24.355 14.0602 25.6726 14.505 26.7503 15.3263C27.8281 16.1475 28.6064 17.2999 28.9659 18.6063C29.3253 19.9128 29.2459 21.3011 28.74 22.5581C28.234 23.8151 27.3294 24.8713 26.1651 25.5644C28.5189 26.3335 30.5359 27.956 31.8447 30.2188C31.9052 30.3232 31.9371 30.4417 31.9373 30.5624C31.9374 30.6831 31.9058 30.8017 31.8456 30.9063Z" fill="white"/>
</svg>
