<svg width="100" height="100" viewBox="0 0 100 100" fill="none" xmlns="http://www.w3.org/2000/svg">
<path d="M16 0.5H84C92.5604 0.500001 99.5 7.43959 99.5 16V84C99.5 92.5604 92.5604 99.5 84 99.5H16C7.43959 99.5 0.5 92.5604 0.5 84V16C0.500001 7.43959 7.43959 0.5 16 0.5Z" fill="#AC6AF2" stroke="url(#paint0_linear_212_68)"/>
<path d="M65 42C67.7614 42 70 39.7614 70 37C70 34.2386 67.7614 32 65 32C62.2386 32 60 34.2386 60 37C60 39.7614 62.2386 42 65 42Z" fill="white"/>
<path d="M65 42C67.7614 42 70 39.7614 70 37C70 34.2386 67.7614 32 65 32C62.2386 32 60 34.2386 60 37C60 39.7614 62.2386 42 65 42Z" fill="#F95555"/>
<path d="M67.44 44.62C66.04 45.06 64.5 45.14 62.9 44.74C60.22 44.04 58.04 41.9 57.3 39.22C56.94 37.92 56.92 36.64 57.14 35.48C57.4 34.2 56.5 33 55.22 33H40C34 33 30 36 30 43V57C30 64 34 67 40 67H60C66 67 70 64 70 57V46.52C70 45.2 68.72 44.2 67.44 44.62ZM57.04 48.3L54.68 50.18C53.36 51.24 51.68 51.76 50 51.76C48.32 51.76 46.62 51.24 45.32 50.18L39.06 45.18C38.42 44.66 38.32 43.7 38.82 43.06C39.34 42.42 40.28 42.3 40.92 42.82L47.18 47.82C48.7 49.04 51.28 49.04 52.8 47.82L55.16 45.94C55.8 45.42 56.76 45.52 57.26 46.18C57.78 46.82 57.68 47.78 57.04 48.3Z" fill="white"/>
<defs>
<linearGradient id="paint0_linear_212_68" x1="50" y1="0" x2="50" y2="100" gradientUnits="userSpaceOnUse">
<stop stop-color="#CEA6FF"/>
<stop offset="0.288298" stop-color="#AB65FF"/>
<stop offset="1" stop-color="#9C5FE5"/>
</linearGradient>
</defs>
</svg>
