<svg width="16" height="16" viewBox="0 0 16 16" fill="none" xmlns="http://www.w3.org/2000/svg">
<path d="M11.8291 12.9907C11.8833 13.0456 11.9262 13.1108 11.9556 13.1825C11.9849 13.2543 12 13.3312 12 13.4088C12 13.4864 11.9849 13.5633 11.9556 13.635C11.9262 13.7068 11.8833 13.7719 11.8291 13.8268C11.7749 13.8817 11.7105 13.9253 11.6397 13.955C11.5689 13.9847 11.493 14 11.4164 14C11.3398 14 11.2639 13.9847 11.1931 13.955C11.1223 13.9253 11.0579 13.8817 11.0037 13.8268L5.17106 7.91805C5.11683 7.86317 5.07381 7.798 5.04446 7.72627C5.01511 7.65454 5 7.57765 5 7.5C5 7.42235 5.01511 7.34546 5.04446 7.27373C5.07381 7.202 5.11683 7.13683 5.17106 7.08195L11.0037 1.17316C11.1132 1.06229 11.2616 1 11.4164 1C11.5712 1 11.7196 1.06229 11.8291 1.17316C11.9385 1.28403 12 1.43441 12 1.59121C12 1.74801 11.9385 1.89838 11.8291 2.00925L6.40832 7.5L11.8291 12.9907Z" fill="black"/>
</svg>
