<svg width="20" height="20" viewBox="0 0 20 20" fill="none" xmlns="http://www.w3.org/2000/svg">
<path d="M6.24992 3.33398H13.7499C14.2666 3.33398 14.7249 3.35065 15.1333 3.40898C17.3249 3.65065 17.9166 4.68398 17.9166 7.50065V12.5007C17.9166 15.3173 17.3249 16.3507 15.1333 16.5923C14.7249 16.6507 14.2666 16.6673 13.7499 16.6673H6.24992C5.73325 16.6673 5.27492 16.6507 4.86659 16.5923C2.67492 16.3507 2.08325 15.3173 2.08325 12.5007V7.50065C2.08325 4.68398 2.67492 3.65065 4.86659 3.40898C5.27492 3.35065 5.73325 3.33398 6.24992 3.33398Z" stroke="#AC6AF2" stroke-width="1.5" stroke-linecap="round" stroke-linejoin="round"/>
<path d="M11.25 8.33398H14.1667" stroke="#AC6AF2" stroke-width="1.5" stroke-linecap="round" stroke-linejoin="round"/>
<path d="M5.83325 12.916H5.84992H14.1666" stroke="#AC6AF2" stroke-width="1.5" stroke-linecap="round" stroke-linejoin="round"/>
<path d="M8.41209 8.33268H8.41957" stroke="#AC6AF2" stroke-width="2" stroke-linecap="round" stroke-linejoin="round"/>
<path d="M5.91209 8.33268H5.91957" stroke="#AC6AF2" stroke-width="2" stroke-linecap="round" stroke-linejoin="round"/>
</svg>
