<svg width="100" height="100" viewBox="0 0 100 100" fill="none" xmlns="http://www.w3.org/2000/svg">
<path d="M16 0.5H84C92.5604 0.500001 99.5 7.43959 99.5 16V84C99.5 92.5604 92.5604 99.5 84 99.5H16C7.43959 99.5 0.5 92.5604 0.5 84V16C0.500001 7.43959 7.43959 0.5 16 0.5Z" fill="#AC6AF2" stroke="url(#paint0_linear_213_79)"/>
<path d="M67.8199 48.2399V39.4599C67.8199 37.8199 66.5799 35.9599 65.0399 35.3399L53.8999 30.7799C51.3999 29.7599 48.5799 29.7599 46.0799 30.7799L34.9399 35.3399C33.4199 35.9599 32.1799 37.8199 32.1799 39.4599V48.2399C32.1799 58.0199 39.2799 67.1799 48.9799 69.8599C49.6399 70.0399 50.3599 70.0399 51.0199 69.8599C60.7199 67.1799 67.8199 58.0199 67.8199 48.2399ZM51.4999 51.7399V56.9999C51.4999 57.8199 50.8199 58.4999 49.9999 58.4999C49.1799 58.4999 48.4999 57.8199 48.4999 56.9999V51.7399C46.4799 51.0999 44.9999 49.2199 44.9999 46.9999C44.9999 44.2399 47.2399 41.9999 49.9999 41.9999C52.7599 41.9999 54.9999 44.2399 54.9999 46.9999C54.9999 49.2399 53.5199 51.0999 51.4999 51.7399Z" fill="white"/>
<defs>
<linearGradient id="paint0_linear_213_79" x1="50" y1="0" x2="50" y2="100" gradientUnits="userSpaceOnUse">
<stop stop-color="#CEA6FF"/>
<stop offset="0.288298" stop-color="#AB65FF"/>
<stop offset="1" stop-color="#9C5FE5"/>
</linearGradient>
</defs>
</svg>
