<svg width="20" height="20" viewBox="0 0 20 20" fill="none" xmlns="http://www.w3.org/2000/svg">
<path d="M14.1667 2.91602H5.83341C3.33341 2.91602 1.66675 4.16602 1.66675 7.08268V12.916C1.66675 15.8327 3.33341 17.0827 5.83341 17.0827H14.1667C16.6667 17.0827 18.3334 15.8327 18.3334 12.916V7.08268C18.3334 4.16602 16.6667 2.91602 14.1667 2.91602ZM5.20841 12.0827C5.20841 12.4243 4.92508 12.7077 4.58341 12.7077C4.24175 12.7077 3.95841 12.4243 3.95841 12.0827V7.91602C3.95841 7.57435 4.24175 7.29102 4.58341 7.29102C4.92508 7.29102 5.20841 7.57435 5.20841 7.91602V12.0827ZM10.0001 12.4993C8.61675 12.4993 7.50008 11.3827 7.50008 9.99935C7.50008 8.61602 8.61675 7.49935 10.0001 7.49935C11.3834 7.49935 12.5001 8.61602 12.5001 9.99935C12.5001 11.3827 11.3834 12.4993 10.0001 12.4993ZM16.0417 12.0827C16.0417 12.4243 15.7584 12.7077 15.4167 12.7077C15.0751 12.7077 14.7917 12.4243 14.7917 12.0827V7.91602C14.7917 7.57435 15.0751 7.29102 15.4167 7.29102C15.7584 7.29102 16.0417 7.57435 16.0417 7.91602V12.0827Z" fill="#AC6AF2"/>
</svg>
