<svg width="32" height="32" viewBox="0 0 32 32" fill="none" xmlns="http://www.w3.org/2000/svg">
<rect width="32" height="32" rx="16" fill="#AC6AF2" fill-opacity="0.1"/>
<path d="M12.875 14.125C12.875 13.9592 12.9408 13.8003 13.0581 13.6831C13.1753 13.5658 13.3342 13.5 13.5 13.5H18.5C18.6658 13.5 18.8247 13.5658 18.9419 13.6831C19.0592 13.8003 19.125 13.9592 19.125 14.125C19.125 14.2908 19.0592 14.4497 18.9419 14.5669C18.8247 14.6842 18.6658 14.75 18.5 14.75H13.5C13.3342 14.75 13.1753 14.6842 13.0581 14.5669C12.9408 14.4497 12.875 14.2908 12.875 14.125ZM13.5 17.25H18.5C18.6658 17.25 18.8247 17.1842 18.9419 17.0669C19.0592 16.9497 19.125 16.7908 19.125 16.625C19.125 16.4592 19.0592 16.3003 18.9419 16.1831C18.8247 16.0658 18.6658 16 18.5 16H13.5C13.3342 16 13.1753 16.0658 13.0581 16.1831C12.9408 16.3003 12.875 16.4592 12.875 16.625C12.875 16.7908 12.9408 16.9497 13.0581 17.0669C13.1753 17.1842 13.3342 17.25 13.5 17.25ZM24.125 10.375V20.375C24.125 20.7065 23.9933 21.0245 23.7589 21.2589C23.5245 21.4933 23.2065 21.625 22.875 21.625H18.1539L17.0852 23.4953C16.9758 23.6866 16.8178 23.8455 16.6273 23.9561C16.4367 24.0666 16.2203 24.1249 16 24.1249C15.7797 24.1249 15.5633 24.0666 15.3727 23.9561C15.1822 23.8455 15.0242 23.6866 14.9148 23.4953L13.8461 21.625H9.125C8.79348 21.625 8.47554 21.4933 8.24112 21.2589C8.0067 21.0245 7.875 20.7065 7.875 20.375V10.375C7.875 10.0435 8.0067 9.72554 8.24112 9.49112C8.47554 9.2567 8.79348 9.125 9.125 9.125H22.875C23.2065 9.125 23.5245 9.2567 23.7589 9.49112C23.9933 9.72554 24.125 10.0435 24.125 10.375ZM22.875 10.375H9.125V20.375H14.2086C14.3193 20.374 14.4282 20.4024 14.5243 20.4573C14.6204 20.5122 14.7001 20.5917 14.7555 20.6875L16.0055 22.875L17.2555 20.6875C17.3108 20.5917 17.3906 20.5122 17.4867 20.4573C17.5827 20.4024 17.6917 20.374 17.8023 20.375H22.875V10.375Z" fill="#AC6AF2"/>
</svg>
