<svg width="12" height="12" viewBox="0 0 12 12" fill="none" xmlns="http://www.w3.org/2000/svg">
<circle cx="6" cy="6" r="6" fill="#F95555"/>
<g clip-path="url(#clip0_559_7832)">
<path d="M9.3455 8.91851C9.37353 8.94655 9.39577 8.97983 9.41095 9.01646C9.42612 9.05309 9.43393 9.09235 9.43393 9.132C9.43393 9.17165 9.42612 9.21091 9.41095 9.24755C9.39577 9.28418 9.37353 9.31746 9.3455 9.3455C9.31746 9.37353 9.28418 9.39577 9.24755 9.41095C9.21091 9.42612 9.17165 9.43393 9.132 9.43393C9.09235 9.43393 9.05309 9.42612 9.01646 9.41095C8.97983 9.39577 8.94655 9.37353 8.91851 9.3455L6.41618 6.84279L3.91386 9.3455C3.85723 9.40212 3.78044 9.43393 3.70036 9.43393C3.62029 9.43393 3.54349 9.40212 3.48687 9.3455C3.43025 9.28888 3.39844 9.21208 3.39844 9.132C3.39844 9.05193 3.43025 8.97513 3.48687 8.91851L5.98957 6.41618L3.48687 3.91386C3.43025 3.85723 3.39844 3.78044 3.39844 3.70036C3.39844 3.62029 3.43025 3.54349 3.48687 3.48687C3.54349 3.43025 3.62029 3.39844 3.70036 3.39844C3.78044 3.39844 3.85723 3.43025 3.91386 3.48687L6.41618 5.98957L8.91851 3.48687C8.97513 3.43025 9.05193 3.39844 9.132 3.39844C9.21208 3.39844 9.28888 3.43025 9.3455 3.48687C9.40212 3.54349 9.43393 3.62029 9.43393 3.70036C9.43393 3.78044 9.40212 3.85723 9.3455 3.91386L6.84279 6.41618L9.3455 8.91851Z" fill="white"/>
</g>
<defs>
<clipPath id="clip0_559_7832">
<rect width="7.2" height="7.2" fill="white" transform="translate(2.39844 2.39844)"/>
</clipPath>
</defs>
</svg>
