<svg width="22" height="22" viewBox="0 0 22 22" fill="none" xmlns="http://www.w3.org/2000/svg">
<path d="M15.8524 4.85247C16.2103 4.49449 16.7906 4.49449 17.1485 4.85247C17.5065 5.21045 17.5065 5.79071 17.1485 6.1487L12.2958 11.0006L17.1476 15.8525L17.2112 15.9223C17.5046 16.2823 17.4831 16.8132 17.1476 17.1487C16.812 17.4843 16.2813 17.5051 15.9212 17.2114L15.8515 17.1487L10.9995 12.2968L6.14944 17.1478C5.79147 17.5058 5.21121 17.5057 4.85322 17.1478C4.49525 16.7898 4.49525 16.2096 4.85322 15.8516L9.70328 11.0006L4.85232 6.14959L4.78966 6.07976C4.49597 5.71974 4.51676 5.18899 4.85232 4.85337C5.18782 4.51787 5.71869 4.49648 6.07872 4.7898L6.14856 4.85337L10.9995 9.70434L15.8524 4.85247Z" fill="black"/>
</svg>
