<svg width="20" height="20" viewBox="0 0 20 20" fill="none" xmlns="http://www.w3.org/2000/svg">
<path d="M5.00926 6.17093C4.95436 6.11674 4.88918 6.07375 4.81745 6.04442C4.74572 6.0151 4.66885 6 4.59121 6C4.51357 6 4.43669 6.0151 4.36496 6.04442C4.29323 6.07375 4.22806 6.11674 4.17316 6.17093C4.11826 6.22512 4.07471 6.28946 4.045 6.36026C4.01529 6.43107 4 6.50695 4 6.58359C4 6.66023 4.01529 6.73612 4.045 6.80692C4.07471 6.87773 4.11826 6.94206 4.17316 6.99625L10.082 12.8289C10.1368 12.8832 10.202 12.9262 10.2737 12.9555C10.3455 12.9849 10.4223 13 10.5 13C10.5777 13 10.6545 12.9849 10.7263 12.9555C10.798 12.9262 10.8632 12.8832 10.918 12.8289L16.8268 6.99625C16.9377 6.88681 17 6.73837 17 6.58359C17 6.42881 16.9377 6.28038 16.8268 6.17093C16.716 6.06149 16.5656 6 16.4088 6C16.252 6 16.1016 6.06149 15.9907 6.17093L10.5 11.5917L5.00926 6.17093Z" fill="black"/>
</svg>
