<svg width="20" height="20" viewBox="0 0 20 20" fill="none" xmlns="http://www.w3.org/2000/svg">
<path d="M13.4917 1.66602H6.50841C3.47508 1.66602 1.66675 3.47435 1.66675 6.50768V13.4827C1.66675 16.5243 3.47508 18.3327 6.50841 18.3327H13.4834C16.5167 18.3327 18.3251 16.5243 18.3251 13.491V6.50768C18.3334 3.47435 16.5251 1.66602 13.4917 1.66602ZM8.44175 12.0827C8.68341 12.3243 8.68341 12.7243 8.44175 12.966C8.31675 13.091 8.15841 13.1493 8.00008 13.1493C7.84175 13.1493 7.68341 13.091 7.55841 12.966L5.48341 10.891C4.99175 10.3993 4.99175 9.60768 5.48341 9.11601L7.55841 7.04102C7.80008 6.79935 8.20008 6.79935 8.44175 7.04102C8.68341 7.28268 8.68341 7.68268 8.44175 7.92435L6.36675 9.99935L8.44175 12.0827ZM14.5167 10.8827L12.4417 12.9577C12.3167 13.0827 12.1584 13.141 12.0001 13.141C11.8417 13.141 11.6834 13.0827 11.5584 12.9577C11.3167 12.716 11.3167 12.316 11.5584 12.0743L13.6334 9.99935L11.5584 7.91602C11.3167 7.67435 11.3167 7.27435 11.5584 7.03268C11.8001 6.79102 12.2001 6.79102 12.4417 7.03268L14.5167 9.10768C15.0084 9.59935 15.0084 10.3993 14.5167 10.8827Z" fill="#AC6AF2"/>
</svg>
