<svg width="80" height="80" viewBox="0 0 80 80" fill="none" xmlns="http://www.w3.org/2000/svg">
<rect x="0.5" y="0.5" width="79" height="79" rx="39.5" fill="#AC6AF2" stroke="url(#paint0_linear_559_10371)"/>
<path d="M40.5 20.5C36.6433 20.5 32.8731 21.6437 29.6664 23.7863C26.4596 25.929 23.9603 28.9745 22.4844 32.5377C21.0084 36.1008 20.6223 40.0216 21.3747 43.8043C22.1271 47.5869 23.9843 51.0615 26.7114 53.7886C29.4386 56.5157 32.9131 58.3729 36.6957 59.1253C40.4784 59.8777 44.3992 59.4916 47.9623 58.0156C51.5255 56.5397 54.571 54.0404 56.7137 50.8336C58.8564 47.6269 60 43.8567 60 40C59.9945 34.83 57.9383 29.8732 54.2826 26.2174C50.6268 22.5617 45.6701 20.5055 40.5 20.5ZM49.0613 36.5613L38.5613 47.0613C38.4219 47.2007 38.2565 47.3114 38.0744 47.3868C37.8923 47.4623 37.6971 47.5012 37.5 47.5012C37.3029 47.5012 37.1077 47.4623 36.9256 47.3868C36.7435 47.3114 36.5781 47.2007 36.4388 47.0613L31.9388 42.5613C31.6573 42.2798 31.4992 41.898 31.4992 41.5C31.4992 41.102 31.6573 40.7202 31.9388 40.4387C32.2202 40.1573 32.602 39.9992 33 39.9992C33.3981 39.9992 33.7798 40.1573 34.0613 40.4387L37.5 43.8794L46.9388 34.4387C47.0781 34.2994 47.2436 34.1888 47.4257 34.1134C47.6078 34.038 47.8029 33.9992 48 33.9992C48.1971 33.9992 48.3923 34.038 48.5744 34.1134C48.7564 34.1888 48.9219 34.2994 49.0613 34.4387C49.2006 34.5781 49.3112 34.7436 49.3866 34.9257C49.462 35.1077 49.5008 35.3029 49.5008 35.5C49.5008 35.6971 49.462 35.8923 49.3866 36.0743C49.3112 36.2564 49.2006 36.4219 49.0613 36.5613Z" fill="white"/>
<defs>
<linearGradient id="paint0_linear_559_10371" x1="40" y1="0" x2="40" y2="80" gradientUnits="userSpaceOnUse">
<stop stop-color="#CEA6FF"/>
<stop offset="0.288298" stop-color="#AB65FF"/>
<stop offset="1" stop-color="#9C5FE5"/>
</linearGradient>
</defs>
</svg>
