<svg width="22" height="22" viewBox="0 0 22 22" fill="none" xmlns="http://www.w3.org/2000/svg">
<path d="M11 16.4313H3.74687C3.19687 16.4313 2.75 15.9844 2.75 15.4344V7.909H16.3329C16.7179 7.91038 17.0232 7.59069 17.0225 7.21875V3.92563C17.0218 3.54544 16.7131 3.23606 16.3329 3.23606H13.453V2.84763C13.453 2.46813 13.1457 2.16013 12.7655 2.16013C12.3853 2.16013 12.078 2.46813 12.078 2.84763V3.23538H6.31744V2.84763C6.31744 2.46813 6.00944 2.16013 5.62994 2.16013C5.25044 2.16013 4.94244 2.46813 4.94244 2.84763V3.23538H2.0625C1.683 3.23538 1.375 3.54338 1.375 3.92288V3.92563V15.4344C1.375 16.742 2.43925 17.8063 3.74687 17.8063H11C11.3795 17.8063 11.6875 17.4989 11.6875 17.1188C11.6875 16.7386 11.3795 16.4313 11 16.4313ZM2.75 6.534V4.61313H4.94244V4.99881C4.94244 5.37831 5.25044 5.68631 5.62994 5.68631C6.00944 5.68631 6.31744 5.37831 6.31744 4.99881V4.61313H12.0773V4.99881C12.0773 5.37831 12.3846 5.68631 12.7648 5.68631C13.145 5.68631 13.4523 5.37831 13.4523 4.99881V4.61313H15.6448V6.534H2.75Z" fill="black"/>
<path d="M16.3329 14.7503C13.9658 14.7503 12.0402 16.676 12.0402 19.0424V19.1524C12.0402 19.5326 12.3475 19.8399 12.7277 19.8399C13.1078 19.8399 13.4152 19.5326 13.4152 19.1524V19.0424C13.4152 17.4336 14.7242 16.1253 16.3329 16.1253C17.9417 16.1253 19.25 17.4336 19.25 19.0424V19.1524C19.25 19.5326 19.5573 19.8399 19.9375 19.8399C20.3177 19.8399 20.625 19.5326 20.625 19.1524V19.0424C20.625 16.676 18.6993 14.7503 16.3329 14.7503Z" fill="black"/>
<path d="M13.4819 11.4098C13.4819 12.9814 14.7606 14.2601 16.3322 14.2601C17.9039 14.2601 19.1826 12.9821 19.1826 11.4098C19.1826 9.83745 17.9046 8.55939 16.3322 8.55939C14.7599 8.55939 13.4819 9.83814 13.4819 11.4098ZM16.3329 12.8844C15.5189 12.8844 14.8576 12.2224 14.8576 11.4091C14.8576 10.5958 15.5196 9.9337 16.3329 9.9337C17.1462 9.9337 17.8083 10.5958 17.8083 11.4091C17.8076 12.2224 17.1456 12.8844 16.3329 12.8844Z" fill="black"/>
<path d="M7.52744 8.89417C7.25725 8.62605 6.82138 8.6288 6.55532 8.89899L5.31713 10.1495L4.82282 9.65042C4.55607 9.38092 4.12088 9.37817 3.85069 9.64561C3.5805 9.91305 3.57844 10.3475 3.84588 10.6177L4.82832 11.6098C4.95757 11.7397 5.13288 11.814 5.31644 11.814C5.5 11.8133 5.676 11.7404 5.80457 11.6098L7.53088 9.86561C7.79969 9.59611 7.79763 9.16092 7.52744 8.89417Z" fill="black"/>
<path d="M10.5428 12.0367C11.519 12.0367 12.3138 11.2372 12.3138 10.2547C12.3138 9.27231 11.519 8.47275 10.5428 8.47275C9.56654 8.47275 8.77179 9.27231 8.77179 10.2547C8.77179 11.2372 9.56654 12.0367 10.5428 12.0367ZM10.5428 9.84775C10.7614 9.84775 10.9388 10.0306 10.9388 10.2547C10.9388 10.4789 10.7614 10.6617 10.5428 10.6617C10.3242 10.6617 10.1468 10.4789 10.1468 10.2547C10.1468 10.0306 10.3242 9.84775 10.5428 9.84775Z" fill="black"/>
<path d="M8.6996 14.4492L9.68203 15.4413C9.81128 15.5712 9.9866 15.6448 10.1702 15.6448C10.3537 15.6448 10.5297 15.5719 10.6583 15.4406L12.3853 13.6964C12.6527 13.4269 12.65 12.9917 12.3798 12.7243C12.1103 12.4575 11.6751 12.4589 11.4077 12.7298L10.1695 13.9803L9.67516 13.4805C9.40841 13.211 8.97253 13.2096 8.70303 13.4757C8.43491 13.7431 8.43285 14.179 8.6996 14.4492Z" fill="black"/>
<path d="M3.91809 14.0848C3.91809 15.0673 4.71284 15.8668 5.68909 15.8668C6.66534 15.8668 7.46009 15.0673 7.46009 14.0848C7.46009 13.1024 6.66534 12.3028 5.68909 12.3028C4.71284 12.3028 3.91809 13.1031 3.91809 14.0848ZM6.08578 14.0848C6.08578 14.309 5.9084 14.4918 5.68978 14.4918C5.47115 14.4918 5.29378 14.309 5.29378 14.0848C5.29378 13.8607 5.47115 13.6778 5.68978 13.6778C5.9084 13.6778 6.08578 13.8607 6.08578 14.0848Z" fill="black"/>
</svg>
