<svg width="22" height="22" viewBox="0 0 22 22" fill="none" xmlns="http://www.w3.org/2000/svg">
<path d="M15.8125 2.0625H15.125C15.125 1.30419 14.5083 0.6875 13.75 0.6875H8.25C7.49169 0.6875 6.875 1.30419 6.875 2.0625H6.1875C4.29206 2.0625 2.75 3.60456 2.75 5.5V17.875C2.75 19.7704 4.29206 21.3125 6.1875 21.3125H15.8125C17.7079 21.3125 19.25 19.7704 19.25 17.875V5.5C19.25 3.60456 17.7079 2.0625 15.8125 2.0625ZM8.25 2.0625H13.7493V3.4375H8.25V2.0625ZM17.875 17.875C17.875 19.0121 16.9496 19.9375 15.8125 19.9375H6.1875C5.05037 19.9375 4.125 19.0121 4.125 17.875V5.5C4.125 4.36287 5.05037 3.4375 6.1875 3.4375H6.875C6.875 4.19581 7.49169 4.8125 8.25 4.8125H13.75C14.5083 4.8125 15.125 4.19581 15.125 3.4375H15.8125C16.9496 3.4375 17.875 4.36287 17.875 5.5V17.875Z" fill="black"/>
<path d="M9.13891 6.73269L7.7921 8.0795L7.36172 7.64913C7.09291 7.38032 6.65772 7.38032 6.3896 7.64913C6.12079 7.91794 6.12079 8.35313 6.3896 8.62125L7.30604 9.53769C7.4401 9.67176 7.6161 9.73913 7.7921 9.73913C7.9681 9.73913 8.1441 9.67176 8.27816 9.53769L10.1117 7.70413C10.3805 7.43532 10.3805 7.00082 10.1117 6.732C9.84291 6.46319 9.40841 6.46319 9.1396 6.732L9.13891 6.73269Z" fill="black"/>
<path d="M15.125 7.5625H11.6875C11.308 7.5625 11 7.8705 11 8.25C11 8.6295 11.308 8.9375 11.6875 8.9375H15.125C15.5045 8.9375 15.8125 8.6295 15.8125 8.25C15.8125 7.8705 15.5045 7.5625 15.125 7.5625Z" fill="black"/>
<path d="M9.13891 10.8577L7.7921 12.2045L7.36172 11.7741C7.09291 11.5053 6.65772 11.5053 6.3896 11.7741C6.12079 12.0429 6.12079 12.4781 6.3896 12.7463L7.30604 13.6627C7.4401 13.7968 7.6161 13.8641 7.7921 13.8641C7.9681 13.8641 8.1441 13.7968 8.27816 13.6627L10.1117 11.8291C10.3805 11.5603 10.3805 11.1258 10.1117 10.857C9.84291 10.5882 9.40841 10.5882 9.1396 10.857L9.13891 10.8577Z" fill="black"/>
<path d="M15.125 11.6875H11.6875C11.308 11.6875 11 11.9955 11 12.375C11 12.7545 11.308 13.0625 11.6875 13.0625H15.125C15.5045 13.0625 15.8125 12.7545 15.8125 12.375C15.8125 11.9955 15.5045 11.6875 15.125 11.6875Z" fill="black"/>
<path d="M9.13891 14.9827L7.7921 16.3295L7.36172 15.8991C7.09291 15.6303 6.65772 15.6303 6.3896 15.8991C6.12079 16.1679 6.12079 16.6031 6.3896 16.8713L7.30604 17.7877C7.4401 17.9218 7.6161 17.9891 7.7921 17.9891C7.9681 17.9891 8.1441 17.9218 8.27816 17.7877L10.1117 15.9541C10.3805 15.6853 10.3805 15.2508 10.1117 14.982C9.84291 14.7132 9.40841 14.7132 9.1396 14.982L9.13891 14.9827Z" fill="black"/>
<path d="M15.125 15.8125H11.6875C11.308 15.8125 11 16.1205 11 16.5C11 16.8795 11.308 17.1875 11.6875 17.1875H15.125C15.5045 17.1875 15.8125 16.8795 15.8125 16.5C15.8125 16.1205 15.5045 15.8125 15.125 15.8125Z" fill="black"/>
</svg>
