<svg width="45" height="45" viewBox="0 0 45 45" fill="none" xmlns="http://www.w3.org/2000/svg">
<path d="M45 22.5C45 34.9264 34.9264 45 22.5 45C10.0736 45 0 34.9264 0 22.5C0 10.0736 10.0736 0 22.5 0C34.9264 0 45 10.0736 45 22.5Z" fill="#AC6AF2"/>
<path d="M31.25 23C31.25 23.1823 31.1776 23.3572 31.0486 23.4861C30.9197 23.6151 30.7448 23.6875 30.5625 23.6875H23.6875V30.5625C23.6875 30.7448 23.6151 30.9197 23.4861 31.0486C23.3572 31.1776 23.1823 31.25 23 31.25C22.8177 31.25 22.6428 31.1776 22.5139 31.0486C22.3849 30.9197 22.3125 30.7448 22.3125 30.5625V23.6875H15.4375C15.2552 23.6875 15.0803 23.6151 14.9514 23.4861C14.8224 23.3572 14.75 23.1823 14.75 23C14.75 22.8177 14.8224 22.6428 14.9514 22.5139C15.0803 22.3849 15.2552 22.3125 15.4375 22.3125H22.3125V15.4375C22.3125 15.2552 22.3849 15.0803 22.5139 14.9514C22.6428 14.8224 22.8177 14.75 23 14.75C23.1823 14.75 23.3572 14.8224 23.4861 14.9514C23.6151 15.0803 23.6875 15.2552 23.6875 15.4375V22.3125H30.5625C30.7448 22.3125 30.9197 22.3849 31.0486 22.5139C31.1776 22.6428 31.25 22.8177 31.25 23Z" fill="white"/>
</svg>
