<svg width="34" height="34" viewBox="0 0 34 34" fill="none" xmlns="http://www.w3.org/2000/svg">
<circle cx="17" cy="17" r="17" fill="#AC6AF2"/>
<path d="M17.5232 10.625H16.4774C15.9414 10.625 15.6734 10.625 15.4331 10.709C15.2864 10.7603 15.1485 10.8341 15.0244 10.9278C14.8212 11.0811 14.6725 11.3041 14.3752 11.75C14.223 11.9784 13.9986 12.315 13.9091 12.409C13.6875 12.642 13.3968 12.7975 13.0801 12.8527C12.9522 12.875 12.815 12.875 12.5405 12.875C11.8055 12.875 11.4379 12.875 11.1374 12.9601C10.3857 13.1729 9.79811 13.7604 9.58531 14.5122C9.50024 14.8127 9.50024 15.1802 9.50024 15.9153V18.875C9.50024 20.9963 9.50024 22.0569 10.1593 22.716C10.8183 23.375 11.8789 23.375 14.0002 23.375H20.0003C22.1216 23.375 23.1822 23.375 23.8412 22.716C24.5003 22.0569 24.5003 20.9963 24.5003 18.875V15.9153C24.5003 15.1802 24.5003 14.8127 24.4152 14.5122C24.2024 13.7604 23.6148 13.1729 22.8631 12.9601C22.5626 12.875 22.1951 12.875 21.46 12.875C21.1855 12.875 21.0482 12.875 20.9204 12.8527C20.6036 12.7975 20.313 12.642 20.0914 12.409C20.0019 12.315 19.7775 11.9784 19.6253 11.75C19.328 11.3041 19.1793 11.0811 18.9761 10.9278C18.852 10.8341 18.7142 10.7603 18.5674 10.709C18.3271 10.625 18.0591 10.625 17.5232 10.625Z" stroke="white" stroke-width="1.5" stroke-linecap="round" stroke-linejoin="round"/>
<path d="M20.0003 17.75C20.0003 19.4068 18.6571 20.75 17.0003 20.75C15.3434 20.75 14.0002 19.4068 14.0002 17.75C14.0002 16.0932 15.3434 14.75 17.0003 14.75C18.6571 14.75 20.0003 16.0932 20.0003 17.75Z" stroke="white" stroke-width="1.5" stroke-linecap="round" stroke-linejoin="round"/>
<path d="M22.2502 15.125V15.1332" stroke="white" stroke-width="1.5" stroke-linecap="round" stroke-linejoin="round"/>
</svg>
