<svg width="115" height="115" viewBox="0 0 115 115" fill="none" xmlns="http://www.w3.org/2000/svg">
<path opacity="0.1" d="M100.836 80.0733C100.836 80.0733 98.3316 83.3935 95.8269 87.9488C93.569 92.0568 91.8518 97.592 91.4726 102.213C90.4091 102.163 89.241 102.116 87.9781 102.071C80.4984 101.806 69.7001 101.639 57.6933 101.639C44.0433 101.639 31.9555 101.855 24.5298 102.185C24.2742 102.197 24.024 102.208 23.7795 102.22C14.5088 90.7292 -4.15949 70.7102 13.0204 62.4748C13.0204 62.4748 14.279 62.0915 16.1659 61.2681C22.1379 58.6616 34.4102 51.6478 33.0451 38.4234C33.0451 38.4234 32.58 35.9557 32.58 32.522C32.58 24.493 35.1219 11.1842 52.0915 11.7916C62.3679 12.1599 71.8321 17.3893 77.5539 25.7595C83.1663 33.9691 92.1401 44.07 99.4481 38.3033C101.135 36.9717 103.366 36.4784 105.448 37.0638C110.708 38.5413 116.684 46.1902 100.836 80.0733Z" fill="#AC6AF2"/>
<path d="M112.767 103.835C112.767 104.452 88.2731 104.952 58.0583 104.952C41.01 104.952 25.7832 104.793 15.7496 104.543C13.4386 104.486 11.4034 104.423 9.68488 104.357C8.55293 104.314 7.5584 104.268 6.71294 104.221C4.53767 104.101 3.34961 103.971 3.34961 103.835C3.34961 103.662 5.2779 103.498 8.71956 103.352C10.129 103.292 11.7921 103.235 13.6806 103.182C23.6172 102.902 39.7924 102.719 58.0583 102.719C74.1254 102.719 88.5749 102.86 98.5838 103.085C107.397 103.283 112.767 103.547 112.767 103.835Z" fill="#F3F3F3"/>
<path d="M58.1483 37.4395C60.6211 37.4395 62.6258 39.4222 62.6258 41.8679V92.1361C62.6258 94.5816 60.6211 96.5644 58.1483 96.5644C57.6673 96.5644 57.1899 96.4866 56.7336 96.3362L42.318 91.5855C40.3315 90.9302 38.9918 89.0913 38.9917 87.02V46.9839C38.9918 44.9128 40.3315 43.0737 42.318 42.4185L56.7336 37.6677C57.1899 37.5174 57.6673 37.4395 58.1483 37.4395Z" fill="#AC6AF2"/>
<path d="M79.3093 85.5644V83.5019C79.3093 81.9831 78.0645 80.7519 76.5288 80.7519C74.9932 80.7519 73.7484 81.9831 73.7484 83.5019V85.5644H59.8459C58.3103 85.5644 57.0654 86.7956 57.0654 88.3144C57.0654 89.8332 58.3103 91.0644 59.8459 91.0644H73.7484C76.8197 91.0644 79.3093 88.602 79.3093 85.5644ZM79.3093 50.502V48.4395C79.3093 45.4019 76.8197 42.9395 73.7484 42.9395H59.8459C58.3103 42.9395 57.0654 44.1707 57.0654 45.6895C57.0654 47.2083 58.3103 48.4395 59.8459 48.4395H73.7484V50.502C73.7484 52.0208 74.9932 53.252 76.5288 53.252C78.0645 53.252 79.3093 52.0208 79.3093 50.502Z" fill="#AC6AF2"/>
<path d="M81.5128 58.1824C82.5986 57.1085 84.3586 57.1085 85.4444 58.1824L92.3956 65.0574C92.9172 65.5733 93.2103 66.2723 93.2103 67.0016C93.2103 67.7312 92.9172 68.4302 92.3956 68.9461L85.4444 75.8211C84.3586 76.895 82.5986 76.895 81.5128 75.8211C80.4267 74.7473 80.4267 73.0062 81.5128 71.9324L83.7174 69.7516H69.5761C68.0405 69.7516 66.7957 68.5204 66.7957 67.0016C66.7957 65.4831 68.0405 64.2516 69.5761 64.2516H83.7174L81.5128 62.0711L81.3226 61.8616C80.432 60.7815 80.4948 59.1892 81.5128 58.1824Z" fill="#AC6AF2"/>
</svg>
