<svg width="80" height="80" viewBox="0 0 80 80" fill="none" xmlns="http://www.w3.org/2000/svg">
<path d="M80 40C80 50.7357 75.7704 60.4837 68.8867 67.6682C61.606 75.2682 51.3554 80 40 80C28.6446 80 18.394 75.2682 11.1133 67.6682C4.22964 60.4837 0 50.7357 0 40C0 17.9088 17.9088 0 40 0C62.0912 0 80 17.9088 80 40Z" fill="#828282" fill-opacity="0.2"/>
<path d="M40 42.1469C49.0249 42.1469 56.341 34.8308 56.341 25.8059C56.341 16.781 49.0249 9.46484 40 9.46484C30.9751 9.46484 23.6589 16.781 23.6589 25.8059C23.6589 34.8308 30.9751 42.1469 40 42.1469Z" fill="#B4B4B4"/>
<path d="M68.8866 67.6677C61.6059 75.2677 51.3554 79.9995 40 79.9995C28.6445 79.9995 18.394 75.2677 11.1133 67.6677C15.2249 55.6662 26.6052 47.0391 40 47.0391C53.3947 47.0391 64.7751 55.6662 68.8866 67.6677Z" fill="#B4B4B4"/>
</svg>
