<svg width="22" height="22" viewBox="0 0 22 22" fill="none" xmlns="http://www.w3.org/2000/svg">
<path d="M2.75 10.9908V13.292C2.75 16.3168 2.75 17.8292 3.6897 18.769C4.6294 19.7087 6.14182 19.7087 9.16667 19.7087H12.8333C15.8582 19.7087 17.3706 19.7087 18.3103 18.769C19.25 17.8292 19.25 16.3168 19.25 13.292V10.9908C19.25 9.4496 19.25 8.67908 18.9238 8.01204C18.5975 7.345 17.9893 6.87192 16.7728 5.92576L14.9395 4.49983C13.047 3.02794 12.1008 2.29199 11 2.29199C9.89918 2.29199 8.95298 3.02794 7.06055 4.49983L5.22721 5.92576C4.01072 6.87192 3.40247 7.345 3.07624 8.01204C2.75 8.67908 2.75 9.4496 2.75 10.9908Z" stroke="black" stroke-width="1.5" stroke-linecap="round" stroke-linejoin="round"/>
<path d="M13.75 15.583C13.0171 16.1535 12.0544 16.4997 11 16.4997C9.94558 16.4997 8.9829 16.1535 8.25 15.583" stroke="black" stroke-width="1.5" stroke-linecap="round" stroke-linejoin="round"/>
</svg>
