<svg width="201" height="222" viewBox="0 0 201 222" fill="none" xmlns="http://www.w3.org/2000/svg">
<path d="M152.656 13.5597L150.463 30.6054C150.358 31.9139 149.318 32.9135 148.08 32.9012L147.727 32.8978C147.709 32.8987 147.689 32.896 147.67 32.8969C146.456 32.852 145.465 31.8444 145.384 30.5558L144.048 13.4765C144.036 13.2632 144.046 13.0562 144.082 12.8533C144.283 11.6831 145.262 10.7831 146.438 10.7931L150.32 10.8301C151.703 10.8411 152.779 12.1006 152.656 13.5597Z" fill="#FF5C63"/>
<path d="M152.275 38.4769C152.296 36.2605 150.618 34.4474 148.527 34.4273C146.435 34.4073 144.723 36.1878 144.702 38.4042C144.68 40.6207 146.358 42.4338 148.45 42.4538C150.541 42.4739 152.253 40.6934 152.275 38.4769Z" fill="#FF5C63"/>
<path d="M152.263 38.4855C152.242 40.702 150.53 42.4813 148.441 42.4635C147.66 42.4566 146.937 42.2022 146.341 41.7644C146.479 41.7853 146.62 41.795 146.761 41.7957C148.851 41.8173 150.564 40.0378 150.585 37.8212C150.599 36.4276 149.941 35.1958 148.932 34.4648C150.826 34.7041 152.284 36.4188 152.263 38.4855Z" fill="#EF2043"/>
<path d="M152.656 13.5598L150.462 30.6055C150.358 31.914 149.318 32.9137 148.08 32.9013L147.727 32.8979C147.709 32.8988 147.689 32.8962 147.67 32.897C147.718 32.8325 147.765 32.7647 147.807 32.6985C148.776 31.2049 149.288 29.4623 149.675 27.7238C150.629 23.4395 151.145 22.861 151.429 18.4842C151.502 17.395 151.57 16.2894 151.36 15.2227C151.148 14.1524 150.623 13.0988 149.722 12.4853C148.8 11.8509 147.591 11.7566 146.492 11.975C145.652 12.1464 144.856 12.4804 144.082 12.8533C144.283 11.6831 145.262 10.7831 146.438 10.7931L150.32 10.8301C151.702 10.8412 152.779 12.1008 152.656 13.5598Z" fill="#EF2043"/>
<path d="M148.754 198.342C148.754 198.342 149.475 199.653 150.415 201.363C151.016 202.454 151.707 203.708 152.358 204.884C153.583 207.105 154.659 209.047 154.703 209.09L154.343 213.544L147.29 215.273L147.245 215.185L142.363 206.047L141.703 204.814L148.754 198.342Z" fill="#FFCAAC"/>
<path d="M150.414 201.363C151.014 202.453 151.706 203.708 152.357 204.884C152.275 205.056 152.19 205.224 152.108 205.384C151.757 206.067 151.316 206.704 150.801 207.277C150.23 207.913 149.567 208.467 148.834 208.907C148.297 209.232 147.72 209.5 147.22 209.878C146.717 210.257 146.28 210.774 146.165 211.39C146.064 211.945 146.233 212.522 146.521 213.006C146.809 213.491 147.213 213.894 147.617 214.286C147.82 214.483 148.033 214.798 147.852 215.013C147.768 215.112 147.629 215.14 147.5 215.158C147.415 215.171 147.329 215.178 147.243 215.185L142.361 206.046C142.852 205.073 143.542 204.196 144.35 203.467C145.991 201.989 148.232 201.077 150.414 201.363Z" fill="#FEABA5"/>
<path d="M149.606 221.252L167.284 210.86L166.187 208.996C166.187 208.996 164.588 207.097 162.169 207.916C159.751 208.734 157.328 210.158 157.328 210.158C157.328 210.158 153.929 207.717 152.877 208.034C151.823 208.352 149.951 212.047 149.951 212.047L146.292 213.404C146.292 213.404 147.012 216.226 147.388 217.479C147.767 218.73 149.606 221.252 149.606 221.252Z" fill="#463D5B"/>
<path d="M166.359 209.289L167.283 210.861L149.605 221.252C149.605 221.252 149.108 220.571 148.578 219.741L166.359 209.289Z" fill="#13213E"/>
<path d="M149.95 212.048C149.95 212.048 155.511 211.95 157.327 210.159C157.327 210.159 153.928 207.718 152.877 208.034C151.823 208.352 149.95 212.048 149.95 212.048Z" fill="#13213E"/>
<path d="M57.1729 198.269C57.1729 198.269 56.013 199.215 54.5006 200.448C53.5361 201.235 52.4264 202.141 51.3868 202.993C49.4231 204.598 47.7067 206.007 47.6726 206.058L43.2268 206.506L40.2554 199.88L40.3336 199.82L48.4425 193.371L49.5363 192.5L57.1729 198.269Z" fill="#FFCAAC"/>
<path d="M54.501 200.448C53.5364 201.235 52.4267 202.141 51.3872 202.993C51.2033 202.944 51.0235 202.891 50.851 202.839C50.1153 202.616 49.4094 202.298 48.7531 201.894C48.0243 201.447 47.36 200.895 46.7951 200.253C46.3786 199.783 46.0111 199.264 45.5496 198.84C45.0863 198.414 44.4991 198.078 43.8723 198.076C43.3079 198.076 42.7713 198.346 42.3464 198.716C41.9216 199.087 41.5976 199.558 41.2849 200.025C41.1277 200.26 40.8563 200.526 40.6126 200.387C40.5 200.322 40.447 200.192 40.4069 200.068C40.3787 199.986 40.3564 199.903 40.334 199.82L48.4429 193.371C49.4887 193.678 50.4754 194.199 51.3379 194.863C53.0884 196.21 54.3885 198.25 54.501 200.448Z" fill="#FEABA5"/>
<path d="M34.793 203.234L48.1996 218.751L49.8364 217.336C49.8364 217.336 51.4154 215.421 50.1744 213.189C48.9335 210.958 47.0961 208.831 47.0961 208.831C47.0961 208.831 48.8847 205.048 48.3839 204.07C47.8813 203.091 43.9088 201.915 43.9088 201.915L41.9155 198.561C41.9155 198.561 39.269 199.777 38.1045 200.373C36.9422 200.971 34.793 203.234 34.793 203.234Z" fill="#463D5B"/>
<path d="M49.5789 217.562L48.1996 218.753L34.793 203.237C34.793 203.237 35.3736 202.626 36.0942 201.955L49.5789 217.562Z" fill="#13213E"/>
<path d="M43.9092 201.916C43.9092 201.916 45.0075 207.368 47.0964 208.832C47.0964 208.832 48.885 205.049 48.3842 204.071C47.8817 203.092 43.9092 201.916 43.9092 201.916Z" fill="#13213E"/>
<path d="M52.8355 110.121C40.4012 114.063 18.371 83.1839 15.6226 75.9645C14.0886 71.9379 25.1837 62.9637 27.1534 63.3907C34.3641 64.9508 45.9618 84.102 47.2808 86.3157C47.3622 86.4522 47.4057 86.5249 47.4057 86.5249L48.6026 91.7252L52.8355 110.121Z" fill="#AC6AF2"/>
<path d="M119.998 61.1933L38.068 73.6595L38.039 73.6624C38.0331 73.6653 38.0302 73.6653 38.0245 73.6653H38.0216C38.0187 73.6682 38.0157 73.6682 38.01 73.6682L37.9694 73.6741L37.8154 73.6973C37.8095 73.7002 37.8066 73.7002 37.8037 73.7002L37.5742 73.7351H37.5713L37.4522 73.7524L37.3767 73.7641C37.3273 73.7728 37.2779 73.7814 37.2257 73.7873L37.1124 73.8047L36.9614 73.8279L36.7987 73.8512L36.7638 73.8571C36.7405 73.8628 36.7202 73.8658 36.697 73.8687L35.9504 73.9819L35.8139 74.0023C35.7237 74.0168 35.6425 74.0284 35.5698 74.0401L35.0353 74.1215L34.5763 74.1912L34.3845 74.2202C34.3641 74.2231 34.3468 74.226 34.3264 74.229L34.0765 74.2667L34.001 74.2783L13.1997 77.442C11.3548 77.7238 9.54786 77.5089 7.91513 76.8959C7.62749 76.7884 7.34284 76.6692 7.06683 76.5356C6.66018 76.341 6.26503 76.1202 5.88738 75.8762C5.36447 75.5392 4.87056 75.1556 4.41441 74.7315C4.30403 74.6269 4.19365 74.5224 4.08614 74.412C3.87113 74.1941 3.66487 73.9646 3.46735 73.7293C3.31334 73.5404 3.16234 73.3488 3.02283 73.1483C2.08152 71.8381 1.43073 70.2953 1.17221 68.5929L0.120521 61.6988C-0.0596147 60.5077 -0.0334856 59.3339 0.169902 58.2126C0.225155 57.9046 0.294781 57.5996 0.379037 57.3004C0.750934 55.9553 1.3871 54.7031 2.23553 53.6166C2.37791 53.4335 2.52892 53.2534 2.6858 53.0792C3.14196 52.5679 3.64749 52.0972 4.1994 51.6817C4.44342 51.4958 4.69906 51.3214 4.96057 51.1559C4.96345 51.1559 4.96345 51.153 4.96345 51.153C5.22784 50.9903 5.49798 50.8364 5.77688 50.6969C6.19528 50.4819 6.63105 50.296 7.0842 50.1391C7.68561 49.93 8.3189 49.7701 8.97257 49.6713L111.971 34.0006L115.771 33.4224C121.535 32.545 126.924 36.5078 127.802 42.2717L128.85 49.1629C129.727 54.9325 125.762 60.316 119.998 61.1933Z" fill="#F6F6FF"/>
<path d="M119.997 61.1935L38.067 73.6598C38.067 73.6598 38.0582 73.6627 38.038 73.6627C38.0321 73.6656 38.0292 73.6656 38.0234 73.6656H38.0206L38.009 73.6684C38.0002 73.6713 37.9886 73.6713 37.9769 73.6743H37.9682L37.8142 73.6976C37.8083 73.7004 37.8054 73.7004 37.8026 73.7004C37.7357 73.7121 37.6573 73.7237 37.573 73.7353H37.5702C37.5324 73.7411 37.4918 73.7469 37.451 73.7527L37.3755 73.7643C37.3262 73.7731 37.2768 73.7817 37.2245 73.7876L37.1113 73.8049C37.059 73.8137 37.0096 73.8223 36.9603 73.8282C36.9021 73.8369 36.8499 73.8456 36.7975 73.8514L36.7626 73.8573C36.7394 73.8631 36.719 73.8661 36.6959 73.8689C36.6669 73.8748 36.6349 73.8777 36.6059 73.8834L35.9493 73.9822L35.8128 74.0026C35.7227 74.0171 35.6414 74.0287 35.5688 74.0403C35.5398 74.0461 35.5078 74.0491 35.4758 74.0548L35.2085 74.0955L35.0343 74.1216C34.8686 74.1477 34.7117 74.171 34.5752 74.1913C34.4969 74.203 34.4329 74.2146 34.3835 74.2203C34.3631 74.2232 34.3457 74.2261 34.3253 74.2291L34.2731 74.2378L34.1801 74.2523C34.1336 74.2582 34.0987 74.264 34.0755 74.2668C34.029 74.2756 34.0028 74.2785 34 74.2785L33.5293 71.196C56.6461 67.4774 79.9633 64.0231 102.511 59.5607C105.814 58.907 109.172 58.2359 112.15 56.6641C115.128 55.0924 117.731 52.4661 118.452 49.1774C118.992 46.7138 118.405 44.224 117.217 42.0422C116.098 39.9941 114.387 38.5966 113.007 36.778C112.452 36.0459 111.909 34.9709 111.97 34.0006L115.77 33.4224C121.534 32.545 126.923 36.5078 127.8 42.2717L128.849 49.1629C129.726 54.9328 125.761 60.3162 119.997 61.1935Z" fill="#E5DEFF"/>
<path d="M34.001 74.2796L13.1997 77.4433C11.3548 77.725 9.54785 77.5101 7.91513 76.8971C7.62748 76.7896 7.34284 76.6705 7.06682 76.5368C6.66017 76.3422 6.26502 76.1214 5.88738 75.8774C5.36447 75.5404 4.87057 75.1569 4.41442 74.7327C4.30403 74.6281 4.19365 74.5236 4.08614 74.4132C3.87113 74.1953 3.66486 73.9658 3.46735 73.7305C3.31334 73.5416 3.16234 73.35 3.02283 73.1495C2.08152 71.8393 1.43073 70.2966 1.17221 68.5941L0.120525 61.7C-0.0596114 60.509 -0.03349 59.3351 0.169898 58.2138C0.225151 57.9058 0.294785 57.6008 0.37904 57.3016C0.750938 55.9565 1.3871 54.7043 2.23553 53.6178C2.37792 53.4348 2.52892 53.2546 2.68581 53.0804C3.14196 52.5691 3.64749 52.0984 4.1994 51.6829C4.44641 51.497 4.69905 51.3226 4.96057 51.1571C4.96344 51.1571 4.96345 51.1543 4.96345 51.1543C5.22784 50.9915 5.49798 50.8376 5.77687 50.6981C6.19527 50.4831 6.63105 50.2972 7.0842 50.1403C7.68562 49.9312 8.31603 49.7743 8.9697 49.6755L29.774 46.5117L33.5305 71.1972L34.001 74.2796Z" fill="#FF5C63"/>
<path d="M34.0013 74.2797L13.2 77.4434C11.3552 77.7252 9.54817 77.5103 7.91545 76.8972C7.6278 76.7897 7.34316 76.6706 7.06714 76.537C6.66049 76.3423 6.26534 76.1216 5.8877 75.8775C15.0275 74.2216 24.2632 72.6876 33.5308 71.1973L34.0013 74.2797Z" fill="#EF2043"/>
<path d="M34 74.281L34.0748 74.2695C34.0287 74.2782 34.0028 74.281 34 74.281Z" fill="#FF5C63"/>
<path d="M34.5752 74.1918L35.0342 74.1221C34.8686 74.1483 34.7117 74.1715 34.5752 74.1918Z" fill="#FF5C63"/>
<path d="M20.0012 55.4884C22.7347 57.4999 23.6263 61.0891 22.3424 64.0808L26.5298 67.0871C27.2319 67.6036 27.3821 68.5913 26.8656 69.2934C26.3489 69.9954 25.3603 70.1472 24.6583 69.6305L20.49 66.6382C18.0169 68.8225 14.2722 69.0676 11.5065 67.0324C8.3182 64.6862 7.63553 60.2001 9.98068 57.0132C12.3267 53.8248 16.8127 53.1421 20.0012 55.4884Z" fill="white"/>
<path d="M15.753 65.1295C17.8891 65.1295 19.6207 63.3979 19.6207 61.2618C19.6207 59.1257 17.8891 57.394 15.753 57.394C13.6169 57.394 11.8853 59.1257 11.8853 61.2618C11.8853 63.3979 13.6169 65.1295 15.753 65.1295Z" fill="#FF5C63"/>
<path d="M156.343 196.682C151.837 202.173 147.409 205.854 143.057 207.8C142.081 208.239 141.108 208.588 140.14 208.852C139.219 209.102 138.304 209.273 137.389 209.369L111.091 158.159L100.281 145.951L95.4929 140.545L88.2793 132.402L88.5756 127.579L89.1972 117.411L89.8276 107.149L89.877 107.138L99.7025 104.828C99.7025 104.828 102.494 108.457 106.498 113.738C107.956 115.668 109.577 117.817 111.286 120.092C119.008 130.394 128.45 143.255 132.43 149.74C139.318 160.965 156.343 196.682 156.343 196.682Z" fill="#463D5B"/>
<path d="M140.141 208.85C139.22 209.1 138.304 209.271 137.389 209.367L111.091 158.157L95.4932 140.543L98.0149 135.168C98.0149 135.168 110.78 149.77 114.243 155.208C121.472 166.562 137.174 202.095 140.141 208.85Z" fill="#13213E"/>
<path d="M96.5905 172.28L56.2982 204.071C46.9115 198.804 41.6181 191.526 40.1074 186.422L71.324 162.222L76.9281 157.875L75.0658 148.381V148.378L69.912 122.095L67.9278 111.982L89.8272 107.147L89.8766 107.136L93.4558 106.346L95.1438 116.145L96.8463 126.014L100.28 145.95L102.404 158.276C103.211 163.66 100.974 169.049 96.5905 172.28Z" fill="#463D5B"/>
<path d="M111.284 120.09C107.583 122.812 103.115 124.483 98.6263 125.598C98.0336 125.744 97.4409 125.883 96.8454 126.014C94.1057 126.621 91.3371 127.083 88.5743 127.577C86.2501 127.992 83.9289 128.431 81.6366 128.997C79.6552 129.486 77.5693 130.148 76.2706 131.725C74.8499 133.451 74.696 135.862 74.6728 138.099C74.6408 141.531 74.7715 144.959 75.0649 148.378L69.9111 122.095C73.4148 120.764 77.1161 119.974 80.7883 119.192C83.5918 118.597 86.3924 118.001 89.1959 117.408C91.1773 116.987 93.1587 116.566 95.1429 116.145C98.8297 115.363 102.516 114.579 106.206 113.797C106.302 113.777 106.398 113.757 106.497 113.736C107.955 115.666 109.576 117.815 111.284 120.09Z" fill="#13213E"/>
<path d="M101.315 133.649L98.6865 135.712L94.0918 133.21L99.5143 139.017L101.315 133.649Z" fill="#13213E"/>
<path d="M82.8742 158.352C81.5236 158.829 77.9074 159.539 73.8691 160.457L76.9272 157.879C79.8954 158.27 80.4395 158.341 82.8742 158.352Z" fill="#13213E"/>
<path d="M147.846 75.4647C147.928 78.4745 137.126 90.964 127.664 96.2718C124.695 97.9365 121.531 98.7761 118.347 98.2067C111.375 96.9575 104.297 91.3708 99.1349 86.3214C94.4256 81.7195 91.3024 77.5623 91.3024 77.5623L85.4717 63.8991C85.4717 63.8991 92.7464 62.891 99.3383 65.125C105.57 67.2371 112.938 78.3815 116.241 79.529C116.433 79.5988 116.613 79.6307 116.775 79.6278C117.577 79.6074 118.446 79.099 119.358 78.2682C123.437 74.5698 128.417 64.4626 132.429 62.7921C136.185 61.2263 147.657 68.5794 147.846 75.4647Z" fill="#AC6AF2"/>
<path d="M127.663 96.2752C124.694 97.9399 121.53 98.7794 118.346 98.21C111.374 96.9608 104.297 91.3741 99.134 86.3248C98.6894 83.1524 98.335 79.9304 97.2223 76.9613C96.4815 74.9887 95.4095 73.141 94.0615 71.5199L94.8023 69.6431C95.9703 69.0766 97.4112 69.37 98.5007 70.076C99.5872 70.782 100.389 71.8424 101.139 72.9028C105.447 79.0125 108.846 85.9647 114.616 90.7204C118.32 93.7709 122.91 95.6535 127.663 96.2752Z" fill="#9952D6"/>
<path d="M113.542 104.063C113.817 106.263 109.532 111.971 109.532 111.971L68.034 119.218C68.034 119.218 64.7391 117.659 64.2874 116.611C61.7422 110.704 62.7934 96.9467 61.9159 93.3214C61.6906 92.3855 61.0561 89.5983 60.2425 85.972C58.7478 79.3204 58.6481 80.0931 57.3178 74.1109C56.5974 70.8712 58.5942 67.6545 61.8128 66.8447C72.2833 64.2105 87.3859 62.1696 91.1489 64.2413C98.1729 68.1083 101.608 75.8082 108.721 91.1537C111.333 96.787 113.231 101.553 113.542 104.063Z" fill="#AC6AF2"/>
<path d="M71.1962 89.294C72.3834 91.7223 74.6565 93.5939 77.2674 94.293C75.7752 94.4868 74.266 94.6589 72.7688 94.5086C71.2715 94.3583 69.7697 93.8606 68.6469 92.8589C66.586 91.0204 66.2194 87.9551 66.2927 85.1943C66.3366 83.544 66.4886 81.8966 66.7465 80.266C66.893 79.3402 66.991 77.0728 68.3204 76.8943C69.834 76.691 69.816 83.2679 69.9472 84.4207C70.1376 86.0918 70.4519 87.7718 71.1962 89.294Z" fill="#9952D6"/>
<path d="M111.55 117.977C110.545 121.794 75.3863 130.202 70.4098 127.724L69.9914 126.283L66.8828 115.566L107.268 103.887C107.268 103.887 109.13 108.213 110.418 112.152C111.231 114.642 111.812 116.981 111.55 117.977Z" fill="#FFEB8E"/>
<path d="M110.417 112.152C108.895 112.794 107.277 113.305 105.778 113.878C102.597 115.095 99.3339 116.103 96.022 116.893C92.312 117.776 88.541 118.389 84.741 118.718C82.2716 118.933 79.7731 119.029 77.3735 119.65C74.9738 120.272 72.6322 121.484 71.1796 123.491C70.5869 124.31 70.1773 125.281 69.9914 126.283L66.8828 115.566L107.268 103.887C107.268 103.887 109.13 108.213 110.417 112.152Z" fill="#FFCB68"/>
<path d="M110.237 111.614L97.6478 114.044L96.8779 114.178L68.032 119.215C68.032 119.215 64.7375 117.658 64.2871 116.61C61.7421 110.703 62.7909 96.9442 61.9136 93.3184C61.6898 92.3829 61.0537 89.5968 60.2402 85.9711C61.3123 84.9892 62.5789 84.3558 63.9647 84.6377C65.3651 84.9223 66.3935 86.0816 67.3754 87.1246C74.0138 94.1522 83.476 98.4288 93.1359 98.7629C93.406 98.7745 93.6763 98.7803 93.9493 98.7803C94.1643 98.7832 94.3793 98.7832 94.5942 98.7803C97.6622 98.7513 100.747 98.2486 103.441 96.8134C104.864 96.0551 106.145 95.015 107.162 93.763C107.804 92.9728 108.336 92.0954 108.719 91.1512C111.331 96.7844 113.228 101.552 113.542 104.062C113.815 106.261 110.237 111.614 110.237 111.614Z" fill="#9952D6"/>
<path d="M99.3378 109.715C99.3523 110.726 98.7829 112.179 97.647 114.047L96.877 114.18C98.1234 112.225 98.7713 110.685 98.7566 109.721C98.7508 109.314 98.1291 107.368 94.0125 98.9134C93.9921 98.8697 93.9688 98.8262 93.9486 98.7826C88.6901 87.9868 80.91 73.0569 80.8315 72.9059L81.3458 72.6357C81.4242 72.7868 89.2712 87.8474 94.5326 98.6577C94.553 98.6985 94.5733 98.742 94.5936 98.7827C99.3233 108.501 99.3349 109.413 99.3378 109.715Z" fill="#733AAF"/>
<path d="M69.6901 67.8575C69.6901 67.8575 61.7623 63.2683 62.6298 59.3888C63.2185 56.7566 71.3309 55.8231 75.6007 55.5951C79.8706 55.3671 87.2111 54.7893 88.2177 59.0317C88.7907 61.4473 86.512 65.6509 86.512 65.6509L69.6901 67.8575Z" fill="#AC6AF2"/>
<path d="M85.4728 62.2384C85.3246 62.5027 85.1706 62.7496 85.0225 62.9763C85.0109 62.9936 84.9993 63.014 84.9876 63.0315C84.5141 63.7462 84.1132 64.2111 84.1132 64.2111L83.689 66.1198L83.2126 68.2638L81.8762 74.2776L76.0977 69.6641L72.2337 66.5816C72.1378 66.509 72.0885 66.4684 72.0885 66.4684L71.3854 65.9077L70.8625 65.4893C70.8625 65.4893 66.6355 62.0321 66.4785 60.9253C66.3071 59.7254 66.1618 58.3919 69.7411 57.5146C69.9444 57.4623 70.1595 57.4129 70.389 57.3664C73.8491 56.6518 81.9052 55.94 85.1039 57.102C85.8273 57.3636 86.3008 57.7237 86.42 58.1974C86.7482 59.5132 86.1439 61.05 85.4728 62.2384Z" fill="#733AAF"/>
<path d="M83.2136 68.2646L81.8771 74.2784L76.0986 69.6649C78.0424 69.7521 80.5524 69.4557 83.2136 68.2646Z" fill="#FFEB8E"/>
<path d="M85.4735 62.2407C85.3254 62.5051 85.1714 62.752 85.0232 62.9786C85.0116 62.996 85 63.0164 84.9884 63.0339C84.7792 63.3564 84.5903 63.6904 84.4247 64.0333C84.0993 64.6957 83.8494 65.3959 83.6896 66.1222L83.2132 68.2662C80.5521 69.4572 78.0419 69.7536 76.0984 69.6665L72.2344 66.5841C72.1386 66.5114 72.0892 66.4708 72.0892 66.4708L71.2031 50.4863L84.6658 51.0064L85.0202 55.9162L85.1045 57.1044L85.4735 62.2407Z" fill="#FFCAAC"/>
<path d="M85.4732 62.2405C85.3251 62.5049 85.1711 62.7518 85.0229 62.9785C85.0113 62.9958 84.9997 63.0162 84.9881 63.0337C84.7789 63.3562 84.59 63.6903 84.4244 64.0332C84.1716 64.036 83.9218 64.0768 83.6807 64.1552C83.3292 64.2684 82.8876 64.4341 82.6407 64.158C82.3938 63.882 82.6117 63.455 82.8179 63.1471C83.0736 62.7695 83.3147 62.3627 83.3873 61.9124C83.46 61.4621 83.3351 60.9537 82.9719 60.6748C82.5535 60.3553 81.9696 60.4221 81.4438 60.4511C78.7391 60.5963 76.0053 59.1931 74.5498 56.9125L75.4156 57.1885C75.802 56.8137 76.3743 56.7295 76.9089 56.6627C79.1721 56.3809 81.4382 56.1252 83.7071 55.8928C84.1371 55.8492 84.5787 55.8085 84.9971 55.9103C85.0058 55.9132 85.0116 55.9132 85.0203 55.9162L85.1046 57.1044L85.4732 62.2405Z" fill="#FEABA5"/>
<path d="M84.2228 59.3705C77.082 61.9627 67.4819 50.3668 67.4819 50.3668C67.4819 50.3668 62.9268 50.4782 62.7069 47.2181C62.4884 43.8959 67.2877 44.6287 67.2877 44.6287L68.5637 40.6917L69.7758 36.0912L75.3109 34.6035L82.6126 33.8564C82.6126 33.8564 84.5219 37.1305 86.2043 41.363C86.21 41.3727 86.2114 41.3797 86.2114 41.3797C88.8392 47.9976 90.9008 56.9492 84.2228 59.3705Z" fill="#FFCAAC"/>
<path d="M67.7848 50.4002C67.7848 50.4002 62.997 50.5828 62.777 47.3227C62.5585 44.0005 67.3578 44.7333 67.3578 44.7333L69.8129 50.2079L71.2925 48.9372L69.9315 40.4563C69.9315 40.4563 73.4789 38.3367 73.3486 37.0496C73.2211 35.7583 76.3893 35.2556 78.2137 35.4596C80.0373 35.6601 81.6089 36.9591 82.2727 35.8099C82.918 34.6938 86.0893 41.0912 86.2744 41.4672C86.2802 41.4769 86.2815 41.4839 86.2815 41.4839C86.2815 41.4839 87.5472 41.096 87.9583 39.3376C88.3685 37.5756 87.1411 35.2862 87.1411 35.2862C87.1411 35.2862 87.1325 28.9541 85.874 28.0333C84.6121 27.1132 82.3158 28.156 82.3158 28.156C82.3158 28.156 75.4143 22.991 73.0476 23.7355C70.6782 24.4844 68.7248 31.4667 64.3022 32.7967C57.2183 34.927 53.864 38.6278 55.7539 44.0488C56.6718 46.6817 58.8986 47.5494 58.8986 47.5494C58.8986 47.5494 64.094 55.3376 71.523 54.3794L67.7848 50.4002Z" fill="#463D5B"/>
<path d="M80.5027 40.2996L80.307 39.7591C80.1727 39.3885 80.3541 38.9812 80.713 38.8543C81.7787 38.4777 83.9857 38.0724 85.7454 40.2202C85.7454 40.2202 83.1364 39.9709 81.3996 40.715C81.0459 40.8665 80.6384 40.674 80.5027 40.2996Z" fill="#463D5B"/>
<path d="M77.938 41.394L77.8419 40.7271C77.776 40.2697 77.3872 39.9391 76.9756 39.9943C75.7529 40.1582 73.418 40.8891 72.8564 44.0532C72.8564 44.0532 75.2334 42.4281 77.2945 42.2972C77.7143 42.2703 78.0046 41.8562 77.938 41.394Z" fill="#463D5B"/>
<path d="M84.7632 42.0762C84.9215 42.2679 85.0689 42.5158 85.1824 42.8052C85.5087 43.6294 85.4476 44.4689 85.047 44.6812C84.6446 44.8916 84.0554 44.3949 83.7305 43.5688C83.6269 43.308 83.5628 43.0442 83.5352 42.8023C83.7933 42.5018 84.1776 42.1784 84.7632 42.0762Z" fill="#13213E"/>
<path d="M83.3131 44.164C83.2421 44.164 83.1783 44.115 83.1621 44.043C83.0763 43.6608 83.0889 43.1155 83.3194 42.8214L83.3526 42.7805C83.374 42.7539 83.396 42.7266 83.4201 42.7C83.79 42.2697 84.2215 42.0155 84.7363 41.926C84.9464 41.8848 85.1751 41.8751 85.4123 41.8975C85.4975 41.9056 85.56 41.981 85.5521 42.0664C85.5441 42.1514 85.47 42.2137 85.3832 42.2061C85.1756 42.1861 84.9767 42.1946 84.7924 42.2306C84.3484 42.3077 83.9762 42.5284 83.6521 42.9054C83.6297 42.9302 83.612 42.9527 83.5947 42.9742L83.5602 43.0165C83.4101 43.208 83.3927 43.6556 83.4645 43.9752C83.4832 44.0587 83.4307 44.1416 83.3472 44.1605C83.3358 44.1627 83.3243 44.164 83.3131 44.164Z" fill="#13213E"/>
<path d="M79.107 43.8174C79.2652 44.0091 79.4126 44.257 79.5261 44.5464C79.8524 45.3706 79.7914 46.2102 79.3907 46.4224C78.9883 46.6328 78.3992 46.1362 78.0743 45.31C77.9707 45.0492 77.9065 44.7854 77.8789 44.5436C78.137 44.243 78.5212 43.9196 79.107 43.8174Z" fill="#13213E"/>
<path d="M77.6578 45.9057C77.5871 45.9057 77.523 45.8567 77.5068 45.7847C77.421 45.4028 77.4337 44.8577 77.6642 44.5633L77.6951 44.5255C77.7169 44.498 77.7398 44.4695 77.7649 44.442C78.1346 44.0119 78.5661 43.7574 79.081 43.6675C79.2915 43.6267 79.5201 43.6179 79.7567 43.639C79.8421 43.6469 79.9047 43.7225 79.8968 43.8075C79.8889 43.8929 79.8149 43.9524 79.7283 43.9477C79.5197 43.9286 79.321 43.9368 79.137 43.9722C78.693 44.0497 78.3211 44.2702 77.9971 44.6474C77.9735 44.6731 77.9548 44.6967 77.9367 44.7191L77.9054 44.7579C77.7549 44.95 77.7374 45.3973 77.8092 45.7168C77.828 45.8003 77.7754 45.8832 77.6919 45.9021C77.6806 45.9044 77.6691 45.9057 77.6578 45.9057Z" fill="#13213E"/>
<path d="M81.3097 50.0574C81.2243 50.0574 81.155 49.9884 81.1548 49.9032C81.1545 49.8176 81.2237 49.7479 81.3092 49.7477C81.6644 49.7464 81.9836 49.669 82.2321 49.5238C82.5117 49.36 82.7126 49.0971 82.7695 48.8199C82.8693 48.3327 82.5414 47.8503 82.337 47.6064C82.2197 47.4663 82.088 47.3308 81.9602 47.1994C81.7473 46.9803 81.5271 46.754 81.3534 46.488C81.3067 46.4162 81.3269 46.3203 81.3987 46.2735C81.4703 46.2272 81.5662 46.2471 81.6131 46.3186C81.7701 46.5595 81.9705 46.7655 82.1825 46.9834C82.314 47.1186 82.45 47.2584 82.5745 47.4073C82.868 47.758 83.1928 48.2982 83.073 48.8822C82.9975 49.2496 82.748 49.5809 82.3885 49.7913C82.0885 49.9666 81.7258 50.0561 81.3103 50.0576C81.31 50.0574 81.3099 50.0574 81.3097 50.0574Z" fill="#13213E"/>
<path d="M80.1862 55.1186C80.1693 55.1186 80.1519 55.1158 80.1351 55.1098C80.0543 55.0817 80.0118 54.9933 80.0399 54.9126C80.3388 54.0586 80.9724 53.3336 81.7785 52.9232C82.5847 52.5125 83.5439 52.4267 84.4099 52.6872C84.4918 52.7117 84.5382 52.7982 84.5137 52.8799C84.489 52.9617 84.4029 53.0086 84.3207 52.9837C83.5296 52.7464 82.6543 52.8242 81.9192 53.1992C81.1834 53.5739 80.6051 54.2356 80.3325 55.0148C80.3101 55.0787 80.2502 55.1186 80.1862 55.1186Z" fill="#13213E"/>
<path d="M69.0394 79.91C68.6791 84.7821 61.143 107.486 52.8341 110.121L48.6012 91.7255L47.4043 86.5252C47.7354 86.4903 48.2875 84.8896 49.0138 82.6613C50.388 78.4429 52.3896 71.9846 54.7137 69.6807C58.264 66.1568 64.484 66.209 64.484 66.209C64.484 66.209 69.5537 72.9782 69.0394 79.91Z" fill="#AC6AF2"/>
<path d="M119.371 78.3006C117.588 80.6625 115.388 82.7108 112.907 84.326C113.968 83.0739 115.037 81.813 115.827 80.3749C115.978 80.1017 116.118 79.82 116.242 79.5323C116.434 79.6021 116.614 79.6339 116.777 79.6311C117.579 79.6107 118.447 79.1023 119.36 78.2715C119.365 78.2802 119.368 78.2919 119.371 78.3006Z" fill="#9952D6"/>
<path d="M49.913 88.55C49.6923 89.6802 49.239 90.7638 48.6028 91.7254C47.9812 92.6667 47.1851 93.4889 46.2555 94.128C46.1916 92.8206 46.6157 91.5452 46.9789 90.2872C47.1503 89.6974 47.3043 89.1048 47.3943 88.4976C47.4757 87.966 47.5163 87.4053 47.4379 86.8708C47.4089 86.6819 47.3188 86.5164 47.2839 86.3334C47.2839 86.3275 47.281 86.3217 47.281 86.3159C47.3624 86.4524 47.4059 86.525 47.4059 86.525C47.737 86.4901 48.2891 84.8894 49.0154 82.6611C49.9741 84.445 50.3024 86.56 49.913 88.55Z" fill="#9952D6"/>
<path d="M146.934 75.6456C146.681 75.9396 146.279 76.0981 145.759 76.137C145.215 76.1757 144.544 76.0786 143.786 75.8554C142.079 75.3627 139.939 74.2546 137.844 72.6806C135.708 71.0798 133.905 69.006 132.893 67.2434C132.651 66.8231 132.455 66.4226 132.31 66.0483C131.948 65.1164 131.9 64.3605 132.257 63.94C132.581 63.5554 133.074 63.3419 133.707 63.3058C133.823 63.2983 133.944 63.2972 134.071 63.3032C135.577 63.3722 137.744 64.3157 140.286 66.2275C142.764 68.0852 145.216 70.8463 146.396 72.9505C146.434 73.0231 146.472 73.0956 146.51 73.1658C147.109 74.2847 147.313 75.1974 146.934 75.6456Z" fill="#733AAF"/>
<path d="M134.671 94.2823L138.286 94.9041C138.961 95.0203 139.602 94.5672 139.718 93.8922L147.379 49.3576C147.495 48.6825 147.042 48.0412 146.367 47.9251L142.752 47.3033C142.077 47.1872 141.436 47.6402 141.32 48.3152L133.659 92.8499C133.543 93.5249 133.996 94.1662 134.671 94.2823Z" fill="#50456E"/>
<path d="M151.183 49.2977L150.544 53.0072C150.24 54.7748 148.93 56.0249 147.618 55.7993L139.017 54.3197C137.705 54.094 136.888 52.4781 137.192 50.7105L137.831 47.001L151.183 49.2977Z" fill="#3E3968"/>
<path d="M152.175 0.371141C138.381 -2.00238 125.276 7.25644 122.902 21.0504C120.529 34.8444 129.788 47.9468 143.582 50.3205C157.376 52.694 170.481 43.4352 172.852 29.6412C175.225 15.8501 165.966 2.74466 152.175 0.371141ZM169.217 29.0165C167.189 40.803 155.993 48.7139 144.206 46.686C132.42 44.6581 124.509 33.4616 126.537 21.6751C128.565 9.88861 139.764 1.97774 151.548 4.00562C163.334 6.03337 171.245 17.2301 169.217 29.0165Z" fill="#50456E"/>
<path d="M151.703 3.11444C139.425 1.00231 127.761 9.24157 125.649 21.519C123.536 33.7963 131.779 45.4608 144.053 47.5729C156.331 49.6851 167.995 41.4458 170.107 29.1684C172.219 16.8909 163.98 5.22657 151.703 3.11444ZM169.218 29.0144C167.19 40.8009 155.993 48.7118 144.207 46.6839C132.421 44.656 124.51 33.4594 126.538 21.673C128.565 9.88649 139.765 1.97562 151.549 4.0035C163.335 6.03125 171.246 17.2279 169.218 29.0144Z" fill="#3E3968"/>
<path d="M133.226 67.7912L135.243 60.9166C135.689 59.3949 137.036 58.3122 138.618 58.2029L144.41 57.8029C145.926 57.6982 147.178 58.972 147.046 60.4861C146.945 61.6483 146.047 62.5823 144.889 62.7278L138.707 63.5049L137.213 72.1882C135.934 71.1124 134.595 69.5768 133.226 67.7912Z" fill="#FFCAAC"/>
<path d="M148.318 66.2962C148.122 67.2665 147.187 67.9024 146.213 67.7268L141.725 66.8097C140.707 66.5718 140.104 65.519 140.41 64.5184C140.533 64.1153 140.782 63.7855 141.106 63.5593C141.486 63.2941 141.969 63.1752 142.46 63.2629L146.841 64.1454C147.851 64.3176 148.52 65.291 148.318 66.2962Z" fill="#FFCAAC"/>
<path d="M141.725 67.0417C141.708 67.0417 141.69 67.0398 141.672 67.0357C141.117 66.9058 140.655 66.562 140.37 66.0673C140.089 65.5787 140.023 64.9892 140.188 64.4499C140.323 64.006 140.595 63.6319 140.973 63.3683C141.42 63.056 141.962 62.9372 142.501 63.0337L146.886 63.9173C147.012 63.9427 147.093 64.0653 147.068 64.1912C147.043 64.3169 146.92 64.3976 146.794 64.3731L142.414 63.4904C142.003 63.4176 141.584 63.5089 141.239 63.7498C140.947 63.9535 140.737 64.2425 140.632 64.5859C140.503 65.0089 140.553 65.4526 140.773 65.8357C140.993 66.2176 141.349 66.4832 141.778 66.5831C141.903 66.6125 141.98 66.7374 141.951 66.8624C141.926 66.9694 141.831 67.0417 141.725 67.0417Z" fill="#FEABA5"/>
<path d="M147.855 69.7737C147.659 70.744 146.724 71.3799 145.75 71.2043L141.262 70.2872C140.244 70.0494 139.641 68.9965 139.947 67.996C140.07 67.5928 140.319 67.2631 140.643 67.0368C141.024 66.7717 141.506 66.6528 141.997 66.7404L146.378 67.623C147.388 67.7951 148.057 68.7685 147.855 69.7737Z" fill="#FFCAAC"/>
<path d="M141.264 70.5144C141.246 70.5144 141.228 70.5125 141.211 70.5084C140.656 70.3785 140.193 70.0348 139.909 69.5401C139.628 69.0515 139.561 68.4615 139.726 67.9226C139.862 67.4787 140.133 67.1043 140.512 66.8408C140.959 66.5292 141.501 66.4095 142.039 66.5064L146.425 67.3897C146.551 67.4151 146.632 67.5377 146.607 67.6636C146.581 67.7892 146.457 67.87 146.333 67.8455L141.953 66.9631C141.542 66.8902 141.123 66.9812 140.777 67.2221C140.486 67.4257 140.276 67.7147 140.171 68.0585C140.041 68.4813 140.091 68.9252 140.312 69.3083C140.531 69.6902 140.888 69.9559 141.316 70.0558C141.441 70.0851 141.519 70.21 141.49 70.335C141.465 70.4422 141.369 70.5144 141.264 70.5144Z" fill="#FEABA5"/>
<path d="M147.394 73.2493C147.198 74.2196 146.263 74.8555 145.289 74.6799L140.801 73.7628C139.783 73.525 139.18 72.4721 139.486 71.4716C139.609 71.0684 139.858 70.7387 140.182 70.5124C140.563 70.2472 141.045 70.1284 141.536 70.216L145.917 71.0985C146.927 71.2707 147.596 72.2442 147.394 73.2493Z" fill="#FFCAAC"/>
<path d="M140.8 73.9947C140.783 73.9947 140.765 73.9928 140.747 73.9887C140.192 73.859 139.73 73.5148 139.445 73.0198C139.164 72.5311 139.098 71.9418 139.263 71.4029C139.398 70.959 139.67 70.585 140.048 70.3211C140.495 70.0097 141.038 69.8905 141.576 69.9865L145.961 70.87C146.087 70.8954 146.169 71.018 146.143 71.1439C146.118 71.2696 145.995 71.3497 145.87 71.3258L141.489 70.4431C141.078 70.3705 140.659 70.4619 140.314 70.7025C140.022 70.9062 139.812 71.1954 139.707 71.5389C139.578 71.9617 139.628 72.405 139.848 72.7881C140.068 73.1703 140.425 73.4361 140.853 73.5362C140.978 73.5656 141.056 73.6905 141.026 73.8155C141.002 73.9225 140.906 73.9947 140.8 73.9947Z" fill="#FEABA5"/>
<path d="M146.58 76.6985C146.385 77.6688 145.449 78.3047 144.475 78.1291L139.988 77.2121C138.97 76.9742 138.366 75.9214 138.673 74.9208C138.796 74.5176 139.044 74.1879 139.369 73.9616C139.749 73.6965 140.231 73.5776 140.723 73.6652L145.103 74.5478C146.114 74.7199 146.782 75.6933 146.58 76.6985Z" fill="#FFCAAC"/>
<path d="M139.989 77.4439C139.971 77.4439 139.954 77.4421 139.936 77.4379C139.381 77.3081 138.918 76.964 138.634 76.469C138.353 75.9803 138.286 75.3911 138.451 74.8522C138.587 74.4083 138.859 74.0339 139.237 73.7703C139.684 73.4589 140.227 73.3397 140.764 73.4357L145.15 74.3194C145.276 74.3447 145.357 74.4674 145.332 74.5933C145.307 74.7189 145.184 74.7996 145.058 74.7751L140.678 73.8925C140.267 73.8198 139.848 73.9116 139.503 74.1519C139.211 74.3555 139.001 74.6448 138.896 74.9883C138.766 75.4111 138.816 75.8543 139.037 76.2377C139.256 76.6196 139.613 76.8853 140.042 76.9855C140.167 77.0149 140.244 77.1398 140.215 77.2648C140.19 77.3716 140.094 77.4439 139.989 77.4439Z" fill="#FEABA5"/>
<path d="M195.921 149.1L133.566 142.369L138.792 104.513L139.825 97.0293L201.002 104.784L200.201 111.779L195.921 149.1Z" fill="#8FA9EB"/>
<path d="M200.2 111.779L138.791 104.513L139.824 97.0293L201.001 104.784L200.2 111.779Z" fill="#463D5B"/>
<path d="M192.886 109.315C192.79 109.315 192.696 109.271 192.635 109.187C192.535 109.048 192.565 108.855 192.704 108.754L196.708 105.846C196.846 105.746 197.04 105.776 197.141 105.915C197.241 106.054 197.211 106.247 197.072 106.348L193.068 109.256C193.013 109.296 192.949 109.315 192.886 109.315Z" fill="white"/>
<path d="M196.029 109.686C195.933 109.686 195.839 109.642 195.778 109.558L193.091 105.859C192.991 105.72 193.022 105.527 193.16 105.426C193.299 105.326 193.492 105.356 193.593 105.495L196.28 109.194C196.38 109.333 196.349 109.526 196.211 109.627C196.156 109.666 196.092 109.686 196.029 109.686Z" fill="white"/>
<path d="M191.517 109.145L187.295 108.764L187.742 104.982L192.162 105.505L191.517 109.145ZM187.985 108.204L191.006 108.477L191.437 106.043L188.285 105.671L187.985 108.204Z" fill="white"/>
<path d="M185.682 108.361C185.67 108.361 185.658 108.36 185.646 108.359L182.686 108.008C182.516 107.988 182.394 107.834 182.414 107.664C182.434 107.494 182.589 107.372 182.758 107.393L185.718 107.743C185.888 107.764 186.01 107.918 185.99 108.087C185.971 108.245 185.837 108.361 185.682 108.361Z" fill="white"/>
<path d="M176.714 113.858L152.597 133.19L157.05 138.807L180.041 118.401L176.714 113.858Z" fill="#567CE1"/>
<path d="M160.323 111.589L155.919 114.387L174.052 142.093L179.455 136.591L160.323 111.589Z" fill="#567CE1"/>
<path d="M7.571 166.05L5.80566 176.228L6.41634 176.333L8.18168 166.156L7.571 166.05Z" fill="white"/>
<path d="M53.1512 123.07C43.3611 125.56 35.2561 131.628 29.9364 140.773C28.0598 143.986 26.5252 147.58 25.3647 151.503C31.4105 155.919 37.4626 160.308 43.5211 164.67C44.999 153.073 51.4612 146.498 60.2408 145.789C59.787 144.634 59.3458 143.474 58.9177 142.31C56.5938 135.999 54.6531 129.561 53.1512 123.07Z" fill="#F6F6FF"/>
<path d="M60.2414 145.787C51.4619 146.496 45.0006 153.07 43.5219 164.668C37.4645 160.304 31.41 155.917 25.3643 151.502C25.7827 150.09 26.2503 148.718 26.7646 147.391C30.9161 150.334 36.5028 153.338 38.6905 153.695C46.2411 154.819 51.8423 145.729 58.9195 142.307C59.3466 143.471 59.7881 144.631 60.2414 145.787Z" fill="#E5DEFF"/>
<path d="M39.6842 147.621C39.4682 147.818 39.2639 147.974 39.072 148.088C38.8803 148.202 38.6834 148.274 38.4811 148.304C38.2789 148.334 38.0643 148.324 37.8375 148.273C37.6103 148.223 37.3606 148.134 37.0879 148.009C36.8016 147.877 36.586 147.75 36.4415 147.629C36.297 147.508 36.2129 147.381 36.1904 147.247C36.1674 147.114 36.2076 146.969 36.311 146.814C36.4139 146.659 36.574 146.483 36.79 146.286C37.0114 146.084 37.2189 145.925 37.414 145.808C37.6084 145.692 37.8081 145.617 38.013 145.585C38.2174 145.553 38.4317 145.561 38.6554 145.61C38.879 145.659 39.1342 145.749 39.4204 145.881C39.6931 146.007 39.9035 146.131 40.0513 146.254C40.199 146.376 40.2832 146.506 40.3037 146.641C40.324 146.778 40.2812 146.924 40.1751 147.082C40.069 147.239 39.9056 147.419 39.6842 147.621ZM49.4869 142.836C49.0546 143.23 48.5845 143.549 48.0765 143.793C47.5682 144.036 47.043 144.206 46.5 144.303C45.9574 144.401 45.4068 144.425 44.8481 144.378C44.2897 144.33 43.7441 144.212 43.2107 144.024L41.5873 145.393C41.4858 145.476 41.317 145.496 41.0824 145.453C40.8473 145.41 40.5524 145.307 40.1981 145.143C39.9732 145.04 39.7879 144.949 39.6427 144.871C39.4972 144.793 39.3904 144.724 39.323 144.664C39.2554 144.604 39.2197 144.547 39.2158 144.495C39.2119 144.442 39.235 144.388 39.2864 144.332L41.0603 142.587C41.2219 142.43 41.3692 142.31 41.5022 142.226C41.6349 142.143 41.7684 142.089 41.9032 142.064C42.0382 142.039 42.1717 142.041 42.3047 142.07C42.4375 142.099 42.5793 142.147 42.729 142.217L42.8724 142.283C43.2337 142.449 43.5901 142.553 43.9425 142.592C44.2943 142.631 44.6293 142.623 44.9473 142.567C45.2652 142.511 45.5637 142.41 45.8426 142.263C46.1212 142.116 46.374 141.94 46.6006 141.733C46.8538 141.502 47.0393 141.269 47.1582 141.035C47.2769 140.8 47.3193 140.57 47.2847 140.344C47.2497 140.118 47.1319 139.902 46.9309 139.697C46.7295 139.492 46.4377 139.301 46.0562 139.125C45.7086 138.965 45.3752 138.848 45.0565 138.773C44.738 138.698 44.4512 138.646 44.1975 138.616C43.9433 138.585 43.7267 138.565 43.5479 138.555C43.3689 138.545 43.2455 138.524 43.1777 138.493C43.1299 138.471 43.0977 138.439 43.08 138.399C43.0629 138.358 43.0722 138.303 43.1083 138.233C43.1443 138.162 43.2117 138.071 43.3108 137.957C43.4094 137.843 43.5487 137.705 43.7279 137.541C43.9123 137.373 44.0571 137.255 44.1618 137.187C44.2663 137.12 44.3791 137.078 44.5004 137.061C44.6211 137.044 44.8126 137.048 45.0746 137.071C45.3367 137.094 45.6308 137.139 45.9576 137.206C46.284 137.274 46.632 137.364 47.0018 137.476C47.3709 137.589 47.7329 137.727 48.0876 137.89C48.8919 138.261 49.4948 138.657 49.8964 139.077C50.2977 139.498 50.5359 139.924 50.6106 140.357C50.6854 140.789 50.621 141.216 50.4176 141.636C50.2135 142.056 49.9032 142.456 49.4869 142.836Z" fill="#FF5C63"/>
<path d="M184.848 50.7085C191.334 58.4536 194.36 68.1153 193.327 78.6443C192.97 82.3483 192.112 86.1616 190.76 90.022C183.273 90.0684 175.797 90.0894 168.332 90.0848C173.915 79.8132 172.518 70.7004 165.811 64.9913C166.855 64.3196 167.891 63.6367 168.919 62.9426C174.495 59.1828 179.834 55.095 184.848 50.7085Z" fill="#F6F6FF"/>
<path d="M165.812 64.9907C172.519 70.7002 173.915 79.8117 168.332 90.0841C175.797 90.0869 183.274 90.0691 190.761 90.0227C191.247 88.6328 191.67 87.2469 192.029 85.8692C186.94 85.8286 180.652 84.9982 178.668 84.0086C171.886 80.5049 172.658 69.8554 168.919 62.9404C167.892 63.6357 166.855 64.3178 165.812 64.9907Z" fill="#E5DEFF"/>
<path d="M185.349 70.6664C185.39 71.2335 185.336 71.7619 185.187 72.2526C185.039 72.7429 184.814 73.1847 184.511 73.5781C184.208 73.9715 183.836 74.3113 183.393 74.5979C182.951 74.8851 182.455 75.1078 181.906 75.267L181.957 77.3071C181.958 77.433 181.855 77.5467 181.649 77.6487C181.442 77.751 181.139 77.8394 180.74 77.9147C180.487 77.9626 180.273 77.9974 180.1 78.0197C179.926 78.0419 179.789 78.0485 179.687 78.0397C179.585 78.031 179.51 78.0067 179.46 77.9669C179.411 77.9272 179.379 77.87 179.366 77.7956L179.09 75.3678C179.067 75.1478 179.065 74.9659 179.086 74.8217C179.107 74.6777 179.155 74.5563 179.23 74.4585C179.304 74.3605 179.402 74.2843 179.523 74.2298C179.643 74.1759 179.788 74.1326 179.957 74.1005L180.118 74.0703C180.525 73.9937 180.872 73.8687 181.159 73.6954C181.446 73.522 181.679 73.3205 181.857 73.0907C182.036 72.8613 182.16 72.6062 182.229 72.3269C182.299 72.0476 182.323 71.7595 182.302 71.4621C182.279 71.1301 182.206 70.8357 182.082 70.5785C181.959 70.3216 181.785 70.1128 181.56 69.9521C181.334 69.7915 181.059 69.6876 180.733 69.6405C180.407 69.5936 180.028 69.6102 179.599 69.6914C179.207 69.7652 178.864 69.8651 178.57 69.9904C178.275 70.1163 178.023 70.2406 177.815 70.3638C177.606 70.4875 177.433 70.5977 177.295 70.6933C177.158 70.7892 177.051 70.8446 176.975 70.8588C176.921 70.8691 176.87 70.8627 176.821 70.8403C176.773 70.8175 176.731 70.768 176.694 70.6908C176.658 70.6137 176.624 70.5008 176.595 70.3521C176.565 70.2041 176.541 70.012 176.525 69.7769C176.508 69.5351 176.507 69.3568 176.522 69.2418C176.537 69.1266 176.581 69.0273 176.653 68.9438C176.724 68.8603 176.864 68.7513 177.073 68.6177C177.281 68.4839 177.532 68.3489 177.826 68.2128C178.12 68.0773 178.449 67.9465 178.813 67.8217C179.178 67.6967 179.559 67.5966 179.959 67.5216C180.864 67.3506 181.648 67.3171 182.308 67.42C182.969 67.5235 183.518 67.7265 183.955 68.0291C184.393 68.332 184.725 68.7105 184.952 69.1654C185.178 69.62 185.311 70.1205 185.349 70.6664ZM182.57 80.197C182.59 80.4809 182.582 80.7238 182.545 80.9265C182.509 81.1299 182.432 81.3021 182.314 81.4431C182.195 81.5847 182.032 81.7015 181.825 81.7929C181.617 81.8845 181.36 81.9592 181.053 82.0171C180.731 82.078 180.464 82.1019 180.253 82.0891C180.042 82.0767 179.869 82.0235 179.734 81.9296C179.599 81.8359 179.5 81.6972 179.437 81.5126C179.373 81.3289 179.331 81.0949 179.311 80.8112C179.291 80.5207 179.299 80.2725 179.335 80.0661C179.37 79.8597 179.447 79.6842 179.566 79.539C179.684 79.3943 179.845 79.2763 180.048 79.1852C180.252 79.0944 180.515 79.0184 180.837 78.9577C181.144 78.8999 181.405 78.8772 181.62 78.889C181.834 78.9012 182.01 78.9557 182.145 79.0528C182.28 79.1499 182.379 79.2924 182.443 79.4798C182.507 79.6675 182.549 79.9065 182.57 80.197Z" fill="#AC6AF2"/>
<g opacity="0.2">
<path d="M147.879 46.9991C159.839 46.9991 169.533 37.3043 169.533 25.3452C169.533 13.3862 159.839 3.69141 147.879 3.69141C135.92 3.69141 126.226 13.3862 126.226 25.3452C126.226 37.3043 135.92 46.9991 147.879 46.9991Z" fill="white"/>
</g>
</svg>
