<svg width="45" height="45" viewBox="0 0 45 45" fill="none" xmlns="http://www.w3.org/2000/svg">
<path d="M45 22.5C45 34.9264 34.9264 45 22.5 45C10.0736 45 0 34.9264 0 22.5C0 10.0736 10.0736 0 22.5 0C34.9264 0 45 10.0736 45 22.5Z" fill="#AC6AF2"/>
<path d="M23 14.0625C21.2323 14.0625 19.5044 14.5867 18.0346 15.5687C16.5648 16.5508 15.4193 17.9467 14.7428 19.5798C14.0664 21.2129 13.8894 23.0099 14.2342 24.7436C14.5791 26.4773 15.4303 28.0698 16.6802 29.3198C17.9302 30.5697 19.5227 31.4209 21.2564 31.7658C22.9901 32.1106 24.7871 31.9336 26.4202 31.2572C28.0534 30.5807 29.4492 29.4352 30.4313 27.9654C31.4133 26.4956 31.9375 24.7677 31.9375 23C31.935 20.6304 30.9926 18.3586 29.317 16.683C27.6414 15.0074 25.3696 14.065 23 14.0625ZM27.8125 23.6875H23C22.8177 23.6875 22.6428 23.6151 22.5139 23.4861C22.3849 23.3572 22.3125 23.1823 22.3125 23V18.1875C22.3125 18.0052 22.3849 17.8303 22.5139 17.7014C22.6428 17.5724 22.8177 17.5 23 17.5C23.1823 17.5 23.3572 17.5724 23.4861 17.7014C23.6151 17.8303 23.6875 18.0052 23.6875 18.1875V22.3125H27.8125C27.9948 22.3125 28.1697 22.3849 28.2986 22.5139C28.4276 22.6428 28.5 22.8177 28.5 23C28.5 23.1823 28.4276 23.3572 28.2986 23.4861C28.1697 23.6151 27.9948 23.6875 27.8125 23.6875Z" fill="white"/>
</svg>
