<svg width="100" height="100" viewBox="0 0 100 100" fill="none" xmlns="http://www.w3.org/2000/svg">
<path d="M0 16C0 7.16345 7.16344 0 16 0H84C92.8366 0 100 7.16344 100 16V84C100 92.8366 92.8366 100 84 100H16C7.16345 100 0 92.8366 0 84V16Z" fill="#AC6AF2"/>
<path d="M69.94 62.66C69.94 63.38 69.78 64.12 69.44 64.84C69.1 65.56 68.66 66.24 68.08 66.88C67.1 67.96 66.02 68.74 64.8 69.24C63.6 69.74 62.3 70 60.9 70C58.86 70 56.68 69.52 54.38 68.54C52.08 67.56 49.78 66.24 47.5 64.58C45.2 62.9 43.02 61.04 40.94 58.98C38.88 56.9 37.02 54.72 35.36 52.44C33.72 50.16 32.4 47.88 31.44 45.62C30.48 43.34 30 41.16 30 39.08C30 37.72 30.24 36.42 30.72 35.22C31.2 34 31.96 32.88 33.02 31.88C34.3 30.62 35.7 30 37.18 30C37.74 30 38.3 30.12 38.8 30.36C39.32 30.6 39.78 30.96 40.14 31.48L44.78 38.02C45.14 38.52 45.4 38.98 45.58 39.42C45.76 39.84 45.86 40.26 45.86 40.64C45.86 41.12 45.72 41.6 45.44 42.06C45.18 42.52 44.8 43 44.32 43.48L42.8 45.06C42.58 45.28 42.48 45.54 42.48 45.86C42.48 46.02 42.5 46.16 42.54 46.32C42.6 46.48 42.66 46.6 42.7 46.72C43.06 47.38 43.68 48.24 44.56 49.28C45.46 50.32 46.42 51.38 47.46 52.44C48.54 53.5 49.58 54.48 50.64 55.38C51.68 56.26 52.54 56.86 53.22 57.22C53.32 57.26 53.44 57.32 53.58 57.38C53.74 57.44 53.9 57.46 54.08 57.46C54.42 57.46 54.68 57.34 54.9 57.12L56.42 55.62C56.92 55.12 57.4 54.74 57.86 54.5C58.32 54.22 58.78 54.08 59.28 54.08C59.66 54.08 60.06 54.16 60.5 54.34C60.94 54.52 61.4 54.78 61.9 55.12L68.52 59.82C69.04 60.18 69.4 60.6 69.62 61.1C69.82 61.6 69.94 62.1 69.94 62.66Z" fill="white" stroke="white" stroke-width="2.25" stroke-miterlimit="10"/>
</svg>
