<svg width="45" height="45" viewBox="0 0 45 45" fill="none" xmlns="http://www.w3.org/2000/svg">
<path d="M45 22.5C45 34.9264 34.9264 45 22.5 45C10.0736 45 0 34.9264 0 22.5C0 10.0736 10.0736 0 22.5 0C34.9264 0 45 10.0736 45 22.5Z" fill="#AC6AF2"/>
<path d="M23.0001 13.6045C23.7217 13.6045 24.358 13.8518 25.0277 14.2553C25.6749 14.6452 26.4132 15.2194 27.3327 15.9346L27.3614 15.957L29.1948 17.3831L29.9942 18.0097C30.7209 18.5936 31.2316 19.0772 31.5411 19.7096L31.6136 19.8699C31.9516 20.6761 31.9376 21.609 31.9376 22.9905V25.3448C31.9376 26.8129 31.9376 27.985 31.814 28.904C31.6943 29.7947 31.4486 30.5381 30.9081 31.1376L30.7963 31.2548C30.1773 31.8737 29.3953 32.1449 28.4455 32.2726C27.5264 32.3962 26.3543 32.3962 24.8862 32.3962H21.1139C19.6458 32.3962 18.4738 32.3962 17.5547 32.2726C16.664 32.1529 15.9206 31.9071 15.3212 31.3667L15.2039 31.2548C14.5851 30.636 14.3138 29.854 14.1861 28.904C14.0923 28.2064 14.0698 27.3633 14.0644 26.3555L14.0626 25.292V22.9905C14.0626 21.5169 14.0466 20.5531 14.4592 19.7096C14.8717 18.8664 15.6423 18.2877 16.8054 17.3831L18.6388 15.957L19.3048 15.4405C19.9391 14.9521 20.482 14.5508 20.9725 14.2553C21.6423 13.8518 22.2785 13.6045 23.0001 13.6045ZM26.4734 27.0205C26.1819 26.6462 25.6575 26.5597 25.264 26.8066L25.187 26.8603C24.618 27.3032 23.8541 27.5837 23.0001 27.5837C22.2528 27.5836 21.5742 27.3693 21.0352 27.0188L20.8132 26.8603L20.7362 26.8066C20.3426 26.5599 19.8183 26.6461 19.5268 27.0205C19.2353 27.3952 19.2802 27.9252 19.6163 28.2461L19.687 28.307L19.858 28.434C20.7291 29.0546 21.8238 29.4169 23.0001 29.417C24.2547 29.417 25.4164 29.005 26.3131 28.307L26.3839 28.2461C26.7201 27.9251 26.765 27.3953 26.4734 27.0205Z" fill="white"/>
</svg>
