<svg width="32" height="32" viewBox="0 0 32 32" fill="none" xmlns="http://www.w3.org/2000/svg">
<rect width="32" height="32" rx="16" fill="#AC6AF2" fill-opacity="0.1"/>
<path d="M23.3282 19.7453C22.8946 18.9984 22.2501 16.8852 22.2501 14.125C22.2501 12.4674 21.5916 10.8777 20.4195 9.70558C19.2474 8.53348 17.6577 7.875 16.0001 7.875C14.3425 7.875 12.7528 8.53348 11.5807 9.70558C10.4086 10.8777 9.75007 12.4674 9.75007 14.125C9.75007 16.8859 9.10476 18.9984 8.67116 19.7453C8.56044 19.9352 8.50174 20.1509 8.50098 20.3707C8.50023 20.5905 8.55745 20.8066 8.66687 20.9973C8.77629 21.1879 8.93404 21.3463 9.12422 21.4565C9.31439 21.5667 9.53027 21.6248 9.75007 21.625H12.9384C13.0825 22.3306 13.466 22.9647 14.0239 23.4201C14.5818 23.8756 15.2799 24.1243 16.0001 24.1243C16.7202 24.1243 17.4183 23.8756 17.9762 23.4201C18.5341 22.9647 18.9176 22.3306 19.0618 21.625H22.2501C22.4698 21.6247 22.6856 21.5665 22.8757 21.4562C23.0657 21.346 23.2234 21.1875 23.3327 20.9969C23.442 20.8063 23.4992 20.5903 23.4984 20.3705C23.4976 20.1508 23.4389 19.9351 23.3282 19.7453ZM16.0001 22.875C15.6124 22.8749 15.2344 22.7546 14.9179 22.5308C14.6014 22.3069 14.3621 21.9905 14.2329 21.625H17.7673C17.638 21.9905 17.3987 22.3069 17.0823 22.5308C16.7658 22.7546 16.3877 22.8749 16.0001 22.875ZM9.75007 20.375C10.3516 19.3406 11.0001 16.9438 11.0001 14.125C11.0001 12.7989 11.5269 11.5271 12.4645 10.5895C13.4022 9.65178 14.674 9.125 16.0001 9.125C17.3262 9.125 18.5979 9.65178 19.5356 10.5895C20.4733 11.5271 21.0001 12.7989 21.0001 14.125C21.0001 16.9414 21.6469 19.3383 22.2501 20.375H9.75007Z" fill="#AC6AF2"/>
</svg>
