<svg width="20" height="20" viewBox="0 0 20 20" fill="none" xmlns="http://www.w3.org/2000/svg">
<path d="M17.9421 17.0575L14.0304 13.1466C15.1642 11.7854 15.7295 10.0395 15.6089 8.27214C15.4882 6.50475 14.6908 4.85192 13.3825 3.65748C12.0743 2.46304 10.3559 1.81895 8.58486 1.8592C6.81382 1.89945 5.12647 2.62094 3.87383 3.87358C2.62118 5.12622 1.89969 6.81357 1.85944 8.58462C1.8192 10.3557 2.46328 12.074 3.65772 13.3823C4.85217 14.6906 6.505 15.488 8.27238 15.6086C10.0398 15.7293 11.7856 15.1639 13.1468 14.0302L17.0577 17.9419C17.1158 17.9999 17.1848 18.046 17.2606 18.0774C17.3365 18.1089 17.4178 18.125 17.4999 18.125C17.5821 18.125 17.6634 18.1089 17.7392 18.0774C17.8151 18.046 17.8841 17.9999 17.9421 17.9419C18.0002 17.8838 18.0463 17.8149 18.0777 17.739C18.1091 17.6631 18.1253 17.5818 18.1253 17.4997C18.1253 17.4176 18.1091 17.3363 18.0777 17.2604C18.0463 17.1845 18.0002 17.1156 17.9421 17.0575ZM3.12493 8.74969C3.12493 7.63717 3.45483 6.54963 4.07292 5.62461C4.691 4.69958 5.56951 3.97861 6.59734 3.55287C7.62517 3.12712 8.75617 3.01573 9.84732 3.23277C10.9385 3.44981 11.9407 3.98554 12.7274 4.77221C13.5141 5.55888 14.0498 6.56116 14.2669 7.65231C14.4839 8.74345 14.3725 9.87445 13.9468 10.9023C13.521 11.9301 12.8 12.8086 11.875 13.4267C10.95 14.0448 9.86245 14.3747 8.74993 14.3747C7.2586 14.373 5.82882 13.7799 4.77429 12.7253C3.71975 11.6708 3.12659 10.241 3.12493 8.74969Z" fill="#828282"/>
</svg>
