<svg width="12" height="12" viewBox="0 0 12 12" fill="none" xmlns="http://www.w3.org/2000/svg">
<circle cx="6" cy="6" r="6" fill="#22C993"/>
<g clip-path="url(#clip0_559_7621)">
<path d="M8.9597 4.18314L5.3597 7.78314C5.33881 7.80406 5.31399 7.82066 5.28668 7.83198C5.25936 7.8433 5.23008 7.84913 5.20052 7.84913C5.17095 7.84913 5.14167 7.8433 5.11435 7.83198C5.08704 7.82066 5.06222 7.80406 5.04133 7.78314L3.46633 6.20814C3.42411 6.16592 3.40039 6.10866 3.40039 6.04895C3.40039 5.98925 3.42411 5.93198 3.46633 5.88977C3.50855 5.84755 3.56581 5.82383 3.62552 5.82383C3.68522 5.82383 3.74248 5.84755 3.7847 5.88977L5.20052 7.30586L8.64133 3.86477C8.68355 3.82255 8.74081 3.79883 8.80052 3.79883C8.86022 3.79883 8.91748 3.82255 8.9597 3.86477C9.00192 3.90698 9.02564 3.96425 9.02564 4.02395C9.02564 4.08366 9.00192 4.14092 8.9597 4.18314Z" fill="white"/>
</g>
<defs>
<clipPath id="clip0_559_7621">
<rect width="7.2" height="7.2" fill="white" transform="translate(2.5 2)"/>
</clipPath>
</defs>
</svg>
