<svg width="278" height="2" viewBox="0 0 278 2" fill="none" xmlns="http://www.w3.org/2000/svg">
<path d="M3.8125 0V1.1875H0V0H3.8125ZM8.23438 0V1.1875H4.42188V0H8.23438ZM12.6562 0V1.1875H8.84375V0H12.6562ZM17.0781 0V1.1875H13.2656V0H17.0781ZM21.5 0V1.1875H17.6875V0H21.5ZM25.9219 0V1.1875H22.1094V0H25.9219ZM30.3438 0V1.1875H26.5312V0H30.3438ZM34.7656 0V1.1875H30.9531V0H34.7656ZM39.1875 0V1.1875H35.375V0H39.1875ZM43.6094 0V1.1875H39.7969V0H43.6094ZM48.0312 0V1.1875H44.2188V0H48.0312ZM52.4531 0V1.1875H48.6406V0H52.4531ZM56.875 0V1.1875H53.0625V0H56.875ZM61.2969 0V1.1875H57.4844V0H61.2969ZM65.7188 0V1.1875H61.9062V0H65.7188ZM70.1406 0V1.1875H66.3281V0H70.1406ZM74.5625 0V1.1875H70.75V0H74.5625ZM78.9844 0V1.1875H75.1719V0H78.9844ZM83.4062 0V1.1875H79.5938V0H83.4062ZM87.8281 0V1.1875H84.0156V0H87.8281ZM92.25 0V1.1875H88.4375V0H92.25ZM96.6719 0V1.1875H92.8594V0H96.6719ZM101.094 0V1.1875H97.2812V0H101.094ZM105.516 0V1.1875H101.703V0H105.516ZM109.938 0V1.1875H106.125V0H109.938ZM114.359 0V1.1875H110.547V0H114.359ZM118.781 0V1.1875H114.969V0H118.781ZM123.203 0V1.1875H119.391V0H123.203ZM127.625 0V1.1875H123.812V0H127.625ZM132.047 0V1.1875H128.234V0H132.047ZM136.469 0V1.1875H132.656V0H136.469ZM140.891 0V1.1875H137.078V0H140.891ZM145.312 0V1.1875H141.5V0H145.312ZM149.734 0V1.1875H145.922V0H149.734ZM154.156 0V1.1875H150.344V0H154.156ZM158.578 0V1.1875H154.766V0H158.578ZM163 0V1.1875H159.188V0H163ZM167.422 0V1.1875H163.609V0H167.422ZM171.844 0V1.1875H168.031V0H171.844ZM176.266 0V1.1875H172.453V0H176.266ZM180.688 0V1.1875H176.875V0H180.688ZM185.109 0V1.1875H181.297V0H185.109ZM189.531 0V1.1875H185.719V0H189.531ZM193.953 0V1.1875H190.141V0H193.953ZM198.375 0V1.1875H194.562V0H198.375ZM202.797 0V1.1875H198.984V0H202.797ZM207.219 0V1.1875H203.406V0H207.219ZM211.641 0V1.1875H207.828V0H211.641ZM216.062 0V1.1875H212.25V0H216.062ZM220.484 0V1.1875H216.672V0H220.484ZM224.906 0V1.1875H221.094V0H224.906ZM229.328 0V1.1875H225.516V0H229.328ZM233.75 0V1.1875H229.938V0H233.75ZM238.172 0V1.1875H234.359V0H238.172ZM242.594 0V1.1875H238.781V0H242.594ZM247.016 0V1.1875H243.203V0H247.016ZM251.438 0V1.1875H247.625V0H251.438ZM255.859 0V1.1875H252.047V0H255.859ZM260.281 0V1.1875H256.469V0H260.281ZM264.703 0V1.1875H260.891V0H264.703ZM269.125 0V1.1875H265.312V0H269.125ZM273.547 0V1.1875H269.734V0H273.547ZM277.969 0V1.1875H274.156V0H277.969Z" fill="black"/>
</svg>
