<svg width="32" height="32" viewBox="0 0 32 32" fill="none" xmlns="http://www.w3.org/2000/svg">
<g clip-path="url(#clip0_47_3621)">
<path d="M29.1163 11.4828C29.1163 10.5997 29.0538 9.88218 29.0538 9.85218C29.0373 9.65365 28.9708 9.46252 28.8606 9.29656C26.4965 5.71697 23.4372 2.64895 19.8644 0.274681C19.6882 0.157265 19.4839 0.0890783 19.2725 0.0771807C18.5313 0.0353057 17.7606 0.0209307 17.6875 0.0203057C14.6079 -0.0533862 11.5268 0.073549 8.46377 0.400306H8.45314C7.21502 0.544056 5.98627 1.16906 4.99439 2.16156C4.00252 3.15406 3.37502 4.38281 3.23314 5.62093V5.63156C2.69377 10.6828 2.69377 19.8816 3.23314 24.9334V24.9441C3.37502 26.1822 4.00002 27.4109 4.99439 28.4028C5.98877 29.3947 7.21502 30.0203 8.45314 30.1641H8.46377C10.9712 30.4312 13.4909 30.5651 16.0125 30.5653C17.4338 30.5653 18.8517 30.5224 20.2663 30.4366C21.0172 31.0343 21.8795 31.4768 22.803 31.7383C23.7265 31.9998 24.6928 32.0751 25.6456 31.9598C26.5985 31.8446 27.5189 31.541 28.3534 31.0668C29.1879 30.5926 29.9198 29.9573 30.5065 29.1977C31.0933 28.4381 31.5232 27.5695 31.7712 26.6423C32.0193 25.7151 32.0805 24.7478 31.9514 23.7968C31.8222 22.8457 31.5053 21.9298 31.019 21.1023C30.5327 20.2748 29.8868 19.5522 29.1188 18.9766C29.1875 16.5503 29.1838 13.9053 29.1163 11.4828ZM25.9038 9.22093C24.8238 9.19093 23.7381 9.11906 22.6644 9.00406H22.66C22.0381 8.93218 21.4169 8.61343 20.91 8.10593C20.4031 7.59843 20.0838 6.98093 20.0119 6.35968V6.35406C19.8981 5.29156 19.8275 4.21156 19.7975 3.13218C22.1192 4.85287 24.1764 6.9042 25.9038 9.22093ZM8.72189 27.8041C7.25564 27.6309 5.76627 26.1416 5.59314 24.6753C5.07814 19.8453 5.07814 10.7209 5.59314 5.89031C5.76627 4.42343 7.25564 2.93406 8.72252 2.76093C11.6076 2.45423 14.5093 2.33044 17.41 2.39031C17.4231 3.80031 17.5038 5.21468 17.6519 6.60593L17.655 6.62906C17.7881 7.78031 18.3488 8.90093 19.2325 9.78468C20.1163 10.6684 21.2375 11.2297 22.3888 11.3628H22.4025H22.4125C23.85 11.5159 25.305 11.5972 26.7456 11.6066C26.8006 13.6066 26.8081 15.7522 26.7725 17.7941C25.7575 17.5026 24.6912 17.4352 23.6475 17.5966C23.6139 17.392 23.5087 17.206 23.3508 17.0717C23.1928 16.9375 22.9923 16.8636 22.785 16.8634H9.21564C8.98358 16.8634 8.76102 16.9556 8.59693 17.1197C8.43283 17.2838 8.34064 17.5064 8.34064 17.7384C8.34064 17.9705 8.43283 18.1931 8.59693 18.3571C8.76102 18.5212 8.98358 18.6134 9.21564 18.6134H20.9169C19.8734 19.2686 19.0133 20.1778 18.4169 21.2559H9.21564C8.98358 21.2559 8.76102 21.3481 8.59693 21.5122C8.43283 21.6763 8.34064 21.8989 8.34064 22.1309C8.34064 22.363 8.43283 22.5856 8.59693 22.7496C8.76102 22.9137 8.98358 23.0059 9.21564 23.0059H17.7294C17.3009 24.7381 17.5251 26.5674 18.3594 28.1447C15.1429 28.2568 11.9225 28.143 8.72189 27.8041ZM24.7588 29.6247C23.7961 29.6248 22.8551 29.3395 22.0546 28.8047C21.2542 28.27 20.6303 27.5099 20.2619 26.6206C19.8934 25.7312 19.797 24.7526 19.9848 23.8085C20.1725 22.8643 20.6361 21.9971 21.3167 21.3164C21.9974 20.6357 22.8647 20.1722 23.8088 19.9844C24.753 19.7966 25.7316 19.8931 26.6209 20.2615C27.5102 20.63 28.2703 21.2539 28.8051 22.0543C29.3398 22.8548 29.6251 23.7958 29.625 24.7584C29.6227 26.0483 29.1093 27.2847 28.1972 28.1968C27.2851 29.1089 26.0487 29.6224 24.7588 29.6247Z" fill="#828282"/>
<path d="M9.21562 14.2256H18.4062C18.6383 14.2256 18.8609 14.1334 19.025 13.9693C19.1891 13.8052 19.2812 13.5827 19.2812 13.3506C19.2812 13.1185 19.1891 12.896 19.025 12.7319C18.8609 12.5678 18.6383 12.4756 18.4062 12.4756H9.21875C8.98669 12.4756 8.76413 12.5678 8.60003 12.7319C8.43594 12.896 8.34375 13.1185 8.34375 13.3506C8.34375 13.5827 8.43594 13.8052 8.60003 13.9693C8.76413 14.1334 8.98669 14.2256 9.21875 14.2256H9.21562Z" fill="#828282"/>
<path d="M25.3749 21.2856C25.2936 21.2043 25.1972 21.1399 25.091 21.0959C24.9848 21.0519 24.8711 21.0293 24.7561 21.0293C24.6412 21.0293 24.5274 21.0519 24.4213 21.0959C24.3151 21.1399 24.2186 21.2043 24.1374 21.2856L21.7055 23.7169C21.5414 23.881 21.4492 24.1035 21.4492 24.3356C21.4492 24.5677 21.5414 24.7903 21.7055 24.9544C21.8696 25.1185 22.0922 25.2107 22.3243 25.2107C22.5563 25.2107 22.7789 25.1185 22.943 24.9544L23.8805 24.0169V27.6125C23.8805 27.8445 23.9727 28.0671 24.1368 28.2312C24.3009 28.3953 24.5234 28.4875 24.7555 28.4875C24.9876 28.4875 25.2101 28.3953 25.3742 28.2312C25.5383 28.0671 25.6305 27.8445 25.6305 27.6125V24.0169L26.568 24.9544C26.7321 25.1185 26.9547 25.2107 27.1868 25.2107C27.4188 25.2107 27.6414 25.1185 27.8055 24.9544C27.9696 24.7903 28.0618 24.5677 28.0618 24.3356C28.0618 24.1035 27.9696 23.881 27.8055 23.7169L25.3749 21.2856Z" fill="#828282"/>
</g>
<defs>
<clipPath id="clip0_47_3621">
<rect width="32" height="32" fill="white"/>
</clipPath>
</defs>
</svg>
